<svg xmlns="http://www.w3.org/2000/svg" xmlns:xlink="http://www.w3.org/1999/xlink" version="1.1" style="" xml:space="preserve" width="741.1052856445312" height="388.15789794921875"><rect id="backgroundrect" width="100%" height="100%" x="0" y="0" fill="none" stroke="none"/>
<style type="text/css">
	.st0{fill:#FFFFFF;}
</style>


<g class="currentLayer" style=""><title>Layer 1</title><g id="Minimal_Safety_area" class="" stroke="none" fill="none">
	<rect width="779.5" height="425.20001220703125" id="svg_1" stroke="none" stroke-opacity="1" fill="none"/>
</g><g id="Logo">
	<g id="svg_2">
		<g id="svg_3">
			<path class="st0" d="M442.5,155.9h0.7v64.2c0,12.3-3.9,22.4-12,30.3c-8,7.7-18.8,11.7-32.5,11.7c-13.6,0-24.4-3.9-32.4-11.7     c-8-7.9-12-18-12-30.3v-43c0-11.7,9.5-21.3,21.3-21.3h0.8v64.2c0,15.3,7.9,23.9,22.2,23.9c14.7,0,22.5-8.6,22.5-23.9v-43     C421.2,165.5,430.7,155.9,442.5,155.9z" id="svg_4"/>
			<path class="st0" d="M480.2,193.2c4.8-7.7,12.6-11.7,23.2-11.8c17.1,0,30.1,8.8,30.1,36.6v8.3c0,10.4-3.3,19.1-10,25.9     c-6.7,6.7-15.6,10-26.9,10c-23.2,0-36.9-15.3-36.9-35.9v-49.9c0-11.4,9.2-20.6,20.6-20.6L480.2,193.2z M512.8,218.1     c0-15.3-5.1-19.8-16.3-19.8c-11.5,0-16.3,4.8-16.3,19.8v8.3c0,12.4,5.8,19.1,16.3,19.1c10.4,0,16.3-6.8,16.3-19.1V218.1z" id="svg_5"/>
			<path class="st0" d="M546,218.1c0-24.7,14.5-36.6,37.5-36.6c23.2,0,38,12,38,36.6v4.8l-0.2,2.9h-54.8v3.9     c0,12.3,6.1,18.9,16.9,18.9c9.1,0,14.8-4.7,16.2-13h20.4c-3.6,16.2-17.1,26.5-36.5,26.5c-11.7,0-20.7-3.3-27.5-10     c-6.8-6.7-10.1-15.3-10.1-25.7V218.1z M600.9,214.6c0-14.1-5.3-19.7-17.4-19.7c-11.7,0-16.9,5.6-16.9,19.7H600.9z" id="svg_6"/>
			<path class="st0" d="M683.7,184h24.1l-27.7,36.6l28.6,39h-15.6c-4.7,0-9-2.3-11.7-6.1l-13.8-19.9l-18,26h-23l28.6-39L627.7,184     h16.6c4.7,0,9,2.3,11.7,6.1l11.7,16.9L683.7,184z" id="svg_7"/>
		</g>
		<g id="svg_8">
			<g id="svg_9">
				<circle class="st0" cx="82.19999694824219" cy="270.8999938964844" r="7.099999904632568" id="svg_10"/>
				<circle class="st0" cx="111" cy="254.10000610351562" r="8.5" id="svg_11"/>
				<circle class="st0" cx="146.60000610351562" cy="237.6999969482422" r="9.899999618530273" id="svg_12"/>
				<circle class="st0" cx="187.10000610351562" cy="224.39999389648438" r="11.300000190734863" id="svg_13"/>
				<circle class="st0" cx="233.89999389648438" cy="215.39999389648438" r="12.800000190734863" id="svg_14"/>
				<circle class="st0" cx="283.5" cy="211.8000030517578" r="14.199999809265137" id="svg_15"/>
			</g>
			<g id="svg_16">
				<circle class="st0" cx="97" cy="301.70001220703125" r="7.099999904632568" id="svg_17"/>
				<circle class="st0" cx="124.4000015258789" cy="288.29998779296875" r="8.5" id="svg_18"/>
				<circle class="st0" cx="158.10000610351562" cy="275.20001220703125" r="9.899999618530273" id="svg_19"/>
				<circle class="st0" cx="196.3000030517578" cy="264.6000061035156" r="11.300000190734863" id="svg_20"/>
				<circle class="st0" cx="239.1999969482422" cy="257.5" r="12.800000190734863" id="svg_21"/>
				<circle class="st0" cx="282.29998779296875" cy="255.10000610351562" r="14.199999809265137" id="svg_22"/>
			</g>
			<g id="svg_23">
				<circle class="st0" cx="78" cy="146.89999389648438" r="7.099999904632568" id="svg_24"/>
				<circle class="st0" cx="109.0999984741211" cy="128.3000030517578" r="8.5" id="svg_25"/>
				<circle class="st0" cx="146" cy="111.30000305175781" r="9.899999618530273" id="svg_26"/>
				<circle class="st0" cx="187.10000610351562" cy="97.69999694824219" r="11.300000190734863" id="svg_27"/>
				<circle class="st0" cx="233.89999389648438" cy="88.30000305175781" r="12.800000190734863" id="svg_28"/>
				<circle class="st0" cx="283.5" cy="85" r="14.199999809265137" id="svg_29"/>
			</g>
			<g id="svg_30">
				<circle class="st0" cx="78" cy="189.1999969482422" r="7.099999904632568" id="svg_31"/>
				<circle class="st0" cx="109.0999984741211" cy="170.60000610351562" r="8.5" id="svg_32"/>
				<circle class="st0" cx="146" cy="153.5" r="9.899999618530273" id="svg_33"/>
				<circle class="st0" cx="187.10000610351562" cy="139.89999389648438" r="11.300000190734863" id="svg_34"/>
				<circle class="st0" cx="233.89999389648438" cy="130.60000610351562" r="12.800000190734863" id="svg_35"/>
				<circle class="st0" cx="283.5" cy="127.30000305175781" r="14.199999809265137" id="svg_36"/>
			</g>
			<g id="svg_37">
				<circle class="st0" cx="78" cy="231.39999389648438" r="7.099999904632568" id="svg_38"/>
				<circle class="st0" cx="109.0999984741211" cy="212.8000030517578" r="8.5" id="svg_39"/>
				<circle class="st0" cx="146" cy="195.8000030517578" r="9.899999618530273" id="svg_40"/>
				<circle class="st0" cx="187.10000610351562" cy="182.1999969482422" r="11.300000190734863" id="svg_41"/>
				<circle class="st0" cx="233.89999389648438" cy="172.8000030517578" r="12.800000190734863" id="svg_42"/>
				<circle class="st0" cx="283.5" cy="169.5" r="14.199999809265137" id="svg_43"/>
			</g>
			<g id="svg_44">
				<circle class="st0" cx="162.39999389648438" cy="343.70001220703125" r="8.5" id="svg_45"/>
				<circle class="st0" cx="121.19999694824219" cy="326.5" r="7.099999904632568" id="svg_46"/>
				<circle class="st0" cx="148.3000030517578" cy="316" r="8.5" id="svg_47"/>
				<circle class="st0" cx="181.5" cy="306.5" r="9.899999618530273" id="svg_48"/>
				<circle class="st0" cx="220" cy="299.3999938964844" r="11.300000190734863" id="svg_49"/>
				<circle class="st0" cx="267.29998779296875" cy="296.3999938964844" r="13.5" id="svg_50"/>
				<circle class="st0" cx="237" cy="328.3999938964844" r="11.300000190734863" id="svg_51"/>
				<circle class="st0" cx="200" cy="344.3999938964844" r="9.899999618530273" id="svg_52"/>
			</g>
		</g>
	</g>
</g></g></svg>