<svg xmlns="http://www.w3.org/2000/svg" xmlns:xlink="http://www.w3.org/1999/xlink" width="1500" height="1500" viewBox="0 0 1500 1500"><defs>
  <style>
    .cls-1 { fill: #fff; fill-rule: evenodd;opacity: 0.3; }
    .cls-2 { fill: #8d9eb7; fill-rule: evenodd; }
    .cls-3 { fill: #38081f; fill-rule: evenodd; }
    .cls-4 { fill: #949798; fill-rule: evenodd; }
    .cls-5 { fill: #5557cd; }
    .cls-6 { fill: #fff; fill-rule:nonzero; }
    .cls-7 { fill: #fff; fill-rule: evenodd; }
    .cls-8 { fill: #b8b8bc; fill-rule: evenodd; }
    .cls-9 { fill: #eb307d; fill-rule: evenodd; }
    .cls-10 { fill: #5a5fcb; fill-rule: nonzero; }
    .cls-11 { fill:#8c8c8c; fill-rule:nonzero; }
  </style>
  </defs><title></title>
  <path id="dashboard" class="cls-1" d="M50,177.586h4.707v3.828H50v-3.828ZM55.586,172h3.828v4.707H55.586V172Zm0,5.586h3.828v3.828H55.586v-3.828Zm0,4.707h3.828V187H55.586v-4.707Zm4.707,0V187h3.389A1.319,1.319,0,0,0,65,185.682v-3.389H60.293ZM51.318,172A1.32,1.32,0,0,0,50,173.318v3.389h4.707V172H51.318ZM50,182.293v3.389A1.32,1.32,0,0,0,51.318,187h3.389v-4.707H50Zm10.293-4.707H65v3.828H60.293v-3.828ZM63.682,172H60.293v4.707H65v-3.389A1.319,1.319,0,0,0,63.682,172Z" transform="translate(-50 -172)"/>
  <path id="Shape_1_copy" data-name="Shape 1 copy" class="cls-2" d="M80.646,336.354l0.707-.708,5,5-0.707.707Zm0,9.293,0.707,0.707,5-5-0.707-.707Z" transform="translate(-50.656 -335.656)"/>
  <path id="publish" class="cls-1" d="M64.122,476.6H63.248V487H63.4A1.6,1.6,0,0,0,65,485.4v-7.918A0.878,0.878,0,0,0,64.122,476.6Zm-1.977-2.661L60.688,472.3a0.876,0.876,0,0,0-.656-0.3H50.878a0.879,0.879,0,0,0-.878.879v13.242a0.879,0.879,0,0,0,.878.879H62.367V474.521A0.881,0.881,0,0,0,62.145,473.937Zm-9.4,1.416H55.6a0.44,0.44,0,0,1,0,.879H52.745A0.44,0.44,0,0,1,52.745,475.353Zm6.556,8.713H52.745a0.44,0.44,0,0,1,0-.879H59.3A0.44,0.44,0,0,1,59.3,484.066Zm0-1.83H52.745a0.44,0.44,0,0,1,0-.879H59.3A0.44,0.44,0,0,1,59.3,482.236Zm0-1.83H52.745a0.44,0.44,0,0,1,0-.879H59.3A0.44,0.44,0,0,1,59.3,480.406Z" transform="translate(-2 -472)"/>
   <path id="profile" class="cls-1" d="M59.355,242.534c-0.37-.061-0.379-1.117-0.379-1.117A5.43,5.43,0,0,0,60.3,238.8c0.638,0,1.032-1.6.394-2.158,0.027-.591.82-4.641-3.2-4.641s-3.222,4.05-3.2,4.641c-0.638.562-.244,2.158,0.394,2.158a5.428,5.428,0,0,0,1.325,2.618s-0.008,1.056-.379,1.117C54.452,242.73,50,244.767,50,247H65C65,244.767,60.548,242.73,59.355,242.534Z" transform="translate(30 -232)"/>
   <path id="paper" class="cls-1" d="M65,656.5a0.461,0.461,0,0,0-.462-0.461H61.362a0.461,0.461,0,0,1-.462-0.462v-3.112A0.461,0.461,0,0,0,60.438,652H57.125a0.691,0.691,0,0,0-.693.692v2.413a0.189,0.189,0,0,1,.02.02l2.7,2.694a1.137,1.137,0,0,1,.336.811h0V663.3h4.82A0.691,0.691,0,0,0,65,662.6V656.5h0Zm-2.763-4.428a0.231,0.231,0,0,0-.394.163v2.694a0.231,0.231,0,0,0,.231.231h2.7a0.23,0.23,0,0,0,.163-0.394ZM50.693,667h7.182a0.691,0.691,0,0,0,.693-0.692v-6.044a0.461,0.461,0,0,0-.462-0.462H54.946a0.461,0.461,0,0,1-.462-0.461v-3.174a0.461,0.461,0,0,0-.462-0.462h-3.33a0.683,0.683,0,0,0-.693.554v9.91a1.049,1.049,0,0,0,.062.369A0.666,0.666,0,0,0,50.693,667Zm4.948-8.139h2.7a0.231,0.231,0,0,0,.231-0.231,0.226,0.226,0,0,0-.068-0.163L56.432,656.4l-0.627-.626a0.223,0.223,0,0,0-.162-0.068,0.23,0.23,0,0,0-.232.231v2.694h0A0.229,0.229,0,0,0,55.641,658.861Z" transform="translate(64 -652)"/>
  <path id="faq" class="cls-1" d="M57.5,712a7.5,7.5,0,1,0,7.5,7.5A7.5,7.5,0,0,0,57.5,712Zm0,11.25a0.938,0.938,0,1,1,.938-0.938A0.938,0.938,0,0,1,57.5,723.25Zm0.716-3.891a0.438,0.438,0,0,0-.247.413v0.2a0.469,0.469,0,1,1-.937,0v-0.2a1.366,1.366,0,0,1,.827-1.28,0.939,0.939,0,0,0,.564-1.041,0.95,0.95,0,0,0-.748-0.748,0.939,0.939,0,0,0-1.111.922,0.469,0.469,0,1,1-.937,0A1.876,1.876,0,1,1,58.216,719.359Z" transform="translate(95 -712)"/>
  <path id="balance" class="cls-1" d="M60.6,600.152a1.468,1.468,0,0,0,0,2.935H65v-2.935H60.6Zm0,1.956a0.489,0.489,0,1,1,.489-0.489A0.489,0.489,0,0,1,60.6,602.108Zm0-2.934h2.446v-1.468a1.469,1.469,0,0,0-1.467-1.467H50.489a0.489,0.489,0,0,0-.489.489v9.783a0.489,0.489,0,0,0,.489.489H61.576a1.469,1.469,0,0,0,1.467-1.467v-1.468H60.6A2.446,2.446,0,1,1,60.6,599.174Zm2.935-2.935h0a2.428,2.428,0,0,1,.494,1.467v1.468H65v-1.468A1.469,1.469,0,0,0,63.533,596.239Zm0.489,7.826v1.468A2.428,2.428,0,0,1,63.528,607h0A1.469,1.469,0,0,0,65,605.533v-1.468H64.022Zm-6.013-11.922a0.489,0.489,0,0,0-.692,0l-0.43.43,2.688,2.687h1.551Zm-2.935,0a0.487,0.487,0,0,0-.692,0l-3.118,3.117h6.927Z" transform="translate(125 -592)"/>
  <path id="apps" class="cls-1" d="M55.963,532H50.879a0.88,0.88,0,0,0-.879.879v5.084a0.88,0.88,0,0,0,.879.879h5.084a0.88,0.88,0,0,0,.879-0.879v-5.084A0.88,0.88,0,0,0,55.963,532Zm2.81,6.842h5.084a0.88,0.88,0,0,0,.879-0.879v-5.084A0.88,0.88,0,0,0,63.858,532H58.774a0.88,0.88,0,0,0-.879.879v5.084A0.88,0.88,0,0,0,58.774,538.842Zm-2.81,1.053H50.879a0.88,0.88,0,0,0-.879.879v5.084a0.88,0.88,0,0,0,.879.879h5.084a0.88,0.88,0,0,0,.879-0.879v-5.084A0.88,0.88,0,0,0,55.963,539.9Zm8.51,2.894H61.842v-2.631a0.526,0.526,0,0,0-1.053,0v2.631H58.158a0.527,0.527,0,0,0,0,1.053H60.79v2.632a0.526,0.526,0,0,0,1.053,0v-2.632h2.631A0.527,0.527,0,0,0,64.474,542.789Z" transform="translate(155 -532)"/>
  <path id="advert" class="cls-1" d="M53.082,294.007A3.1,3.1,0,0,0,50,297.112h0a3.087,3.087,0,0,0,3.082,3.092h3.572v-6.2H53.082Zm9.954,0.8v4.55A2.3,2.3,0,0,0,63.036,294.806Zm-5.453,11.275h0a0.332,0.332,0,0,1-.322-0.274l-0.239-1.481h0.594v-2.152H56.676l-0.227-1.362h-3.26l0.928,5.782a0.476,0.476,0,0,0,.475.406h2.975a0.453,0.453,0,0,0,.453-0.455A0.434,0.434,0,0,0,57.583,306.081ZM57.261,293.8v6.572l5.169,1.8V292Z" transform="translate(185 -292)"/>
  <path id="alert" class="cls-3" d="M1784.28,50.293c-0.63-.932-1.5-2.207-1.5-5.839V42.818a7.669,7.669,0,0,0-5.56-7.315V35.182a2.22,2.22,0,0,0-4.44,0V35.5a7.669,7.669,0,0,0-5.56,7.315v1.636c0,3.631-.87,4.907-1.5,5.839a3.046,3.046,0,0,0-.72,1.8c0,1.778,3.78,2.4,6.84,2.617a3.324,3.324,0,0,0,6.32,0c3.06-.215,6.84-0.839,6.84-2.617A3.046,3.046,0,0,0,1784.28,50.293Zm-10.39-15.111a1.11,1.11,0,0,1,2.22,0v0.087a7.116,7.116,0,0,0-2.22,0V35.182h0ZM1775,55.909a2.213,2.213,0,0,1-1.94-1.133c0.79,0.032,1.47.042,1.94,0.042s1.15-.009,1.94-0.042A2.213,2.213,0,0,1,1775,55.909Zm0-2.182c-5.09,0-8.89-.864-8.89-1.636a2.041,2.041,0,0,1,.53-1.19c0.67-.989,1.69-2.483,1.69-6.446V42.818a6.671,6.671,0,0,1,13.34,0v1.636c0,3.963,1.02,5.457,1.69,6.446a2.041,2.041,0,0,1,.53,1.19C1783.89,52.863,1780.09,53.727,1775,53.727Z" transform="translate(-1430 -33)"/>
  <path id="user" class="cls-3" d="M1846,55.326V54.05a4.316,4.316,0,0,0-1.56-3.343,35.021,35.021,0,0,0-5.4-3.544V45.7a7.387,7.387,0,0,0,.4-1.252,2.822,2.822,0,0,0,1.16-1.964,2.609,2.609,0,0,0-.08-2.268c0.36-2.086.2-3.623-.49-4.57a2.159,2.159,0,0,0-1.07-.8,3.931,3.931,0,0,0-1.31-1.188,4.484,4.484,0,0,0-2.41-.663c-0.16,0-.32.01-0.46,0.02a4.157,4.157,0,0,0-1.17.231c-0.01,0-.01,0-0.02,0a5.216,5.216,0,0,0-1.24.658,6.433,6.433,0,0,0-1.24,1.07,5.412,5.412,0,0,0-1.38,2.538,4.878,4.878,0,0,0-.05,2.278,1.1,1.1,0,0,0-.23.226,2.637,2.637,0,0,0-.05,2.214,3.508,3.508,0,0,0,.91,1.826,6.708,6.708,0,0,0,.65,1.919v1.183a34.636,34.636,0,0,0-5.4,3.544,4.309,4.309,0,0,0-1.56,3.343v1.276A1.637,1.637,0,0,0,1825.6,57h18.8A1.642,1.642,0,0,0,1846,55.326Zm-20.85,0V54.05a3.112,3.112,0,0,1,1.11-2.391,33.537,33.537,0,0,1,5.43-3.525,0.8,0.8,0,0,0,.43-0.717v-1.6a0.643,0.643,0,0,0-.08-0.3,5.437,5.437,0,0,1-.64-1.959,0.6,0.6,0,0,0-.43-0.491,3.286,3.286,0,0,1-.46-1.159,2.893,2.893,0,0,1-.15-1.1,0.587,0.587,0,0,0,.49-0.231,0.642,0.642,0,0,0,.09-0.569,3.712,3.712,0,0,1-.09-2.189,4.274,4.274,0,0,1,1.1-1.993,5.408,5.408,0,0,1,1.04-.893,0.034,0.034,0,0,1,.02-0.015,3.726,3.726,0,0,1,.97-0.52l0.01,0a2.994,2.994,0,0,1,.87-0.167,3.572,3.572,0,0,1,2.22.486,2.844,2.844,0,0,1,1.01.952,0.527,0.527,0,0,0,.45.319,0.934,0.934,0,0,1,.59.437c0.28,0.412.67,1.473,0.18,3.947a0.6,0.6,0,0,0,.32.668,2.568,2.568,0,0,1-.14,1.134,4.4,4.4,0,0,1-.41,1.09,0.552,0.552,0,0,0-.33.039,0.587,0.587,0,0,0-.34.447,6.2,6.2,0,0,1-.47,1.571,0.6,0.6,0,0,0-.06.26v1.846a0.806,0.806,0,0,0,.43.717,33.544,33.544,0,0,1,5.42,3.525,3.08,3.08,0,0,1,1.11,2.391v1.276a0.457,0.457,0,0,1-.44.466h-18.8A0.453,0.453,0,0,1,1825.15,55.326Z" transform="translate(-1545 -33)"/>
  <path id="Shape_1_copy_2"  class="cls-4" d="M1824.35,176.353l-0.7-.707,12-12,0.7,0.708Zm0-12.707-0.7.708,12,12,0.7-.707Z" transform="translate(-1443.66 -163.656)"/>
  <path id="info" class="cls-4" d="M341.339,173.588l-0.845.368,1.1-5.581a0.8,0.8,0,0,0-1.181-.855l-2.037,1.147a0.8,0.8,0,1,0,.788,1.4l0.518-.292-1.058,5.373a0.8,0.8,0,0,0,.787.958,0.816,0.816,0,0,0,.321-0.066l2.249-.98a0.8,0.8,0,1,0-.641-1.472h0Zm-0.533-7.567a1.142,1.142,0,1,0-.812-0.334A1.15,1.15,0,0,0,340.806,166.021ZM340,160a10,10,0,1,0,10,10A10.011,10.011,0,0,0,340,160Zm0,18.166A8.166,8.166,0,1,1,348.166,170,8.175,8.175,0,0,1,340,178.166Z" transform="translate(75 -160)"/>
  <path id="Shape_1_copy_3" class="cls-3" d="M1032.65,980.353l0.7-.706,8,8-0.7.707Zm16.7,0-0.7-.706-8,8,0.7,0.707Z" transform="translate(-582.66 -979.656)"/>
  <path class="cls-4" d="M335.354,1202.35l-0.708-.7,5-5,0.708,0.7Zm9.292,0,0.708-.7-5-5-0.708.7Z" transform="translate(154.656 -1196.66)"/>
  <path class="cls-4" d="M365.646,1255.35l0.708-.7,5,5-0.708.7Zm0,9.3,0.708,0.7,5-5-0.708-.7Z" transform="translate(155.656 -1254.66)"/>
  <path class="cls-4" d="M607.433,1195.15a0.49,0.49,0,0,0-.706,0,0.513,0.513,0,0,0,0,.71l3.577,3.63H598.5a0.51,0.51,0,0,0,0,1.02h11.8l-3.577,3.62a0.526,0.526,0,0,0,0,.72,0.49,0.49,0,0,0,.706,0l4.423-4.5a0.5,0.5,0,0,0,0-.7Z" transform="translate(-50 -1195)"/>
  <polyline points="0,0.5 -7.5,8.5 0,16 "  fill="none" stroke="#38081f" stroke-width="1.1" transform="translate(12.0 50)" />
  <polyline points="0,0.5 7.5,8.5 0,16 "  fill="none" stroke="#38081f" stroke-width="1.1" transform="translate(50.5 50)" />
  <polyline points="0,0.5 9.5,10.5 0,20.5 "  fill="none" stroke="#5557cd" stroke-width="1.5" transform="translate(588.5 0)" />
  <polyline points="0,0.5 9.5,10.5 0,20.5 "  fill="none" stroke="#fff" stroke-width="1.5" transform="translate(642.5 0)" />
  <path class="cls-6" d="M256.894,34.005l1.117,1.007-9.905,10.361-1.117-1.007Zm-8.788,9.621-1.117,1.007,9.905,10.361,1.117-1.007Z" transform="translate(367 -34)"/>
  <polyline points="0,0.5 9.5,10.5 0,20.5 "  fill="none" stroke="#fff" stroke-width="1.5" transform="translate(642.5 0)" />
  <path class="cls-7" d="M440,344v78h85V344H440Zm82.371,75.371H442.629V358.9h5.258v10.079h2.628V358.9h63.97v10.079h2.628V358.9h5.258v60.472Zm0-63.1H442.629v-9.641h79.742v9.641h0Zm-75.8-6.135h5.258v2.629h-5.258v-2.629Zm8.763,0h5.258v2.629h-5.258v-2.629Zm57.835,0h5.258v2.629H513.17v-2.629Zm-0.438,60.472V379.933H493.454V369.416H471.546v17.528H452.268v23.663H445.7v2.629H519.3v-2.629h-6.572Zm-41.186,0H454.9v-14.9h16.649v14.9Zm0-17.528H454.9v-3.506h16.649v3.506Zm19.279,17.528h-16.65V378.18h16.65v32.427h0Zm0-35.056h-16.65v-3.506h16.65v3.506h0ZM510.1,410.607H493.454V388.7H510.1v21.91Zm0-24.54H493.454v-3.5H510.1v3.5Zm-28.918-4.82h2.629v6.135h-2.629v-6.135Zm21.908,10.517h2.629v7.888h-2.629v-7.888Zm-5.258,0h2.629v7.888h-2.629v-7.888Zm-35.928,7.011h2.629v7.888h-2.629v-7.888Zm4.382,0h2.629v7.888h-2.629v-7.888Zm-8.763,0h2.629v7.888h-2.629v-7.888Z" transform="translate(-440 -244)"/>
  <path class="cls-7" d="M926,411.233V348.167a1.434,1.434,0,0,0-1.433-1.434H875.833v-4.3A1.434,1.434,0,0,0,874.4,341H848.6a1.433,1.433,0,0,0-1.433,1.433v12.9h-5.734A1.434,1.434,0,0,0,840,356.767V405.5a7.176,7.176,0,0,0,7.167,7.167h34.4v3.07a5.734,5.734,0,0,0-4.1,4.1H840V422.7h37.47a5.707,5.707,0,0,0,11.06,0H926v-2.867H888.53a5.734,5.734,0,0,0-4.1-4.1v-3.07h40.134A1.434,1.434,0,0,0,926,411.233Zm-40.133,10.034A2.867,2.867,0,1,1,883,418.4,2.867,2.867,0,0,1,885.867,421.267Zm-38.7-11.467a4.3,4.3,0,0,1-4.3-4.3V358.2h68.8v47.3a7.148,7.148,0,0,0,.134,1.329c0.026,0.143.068,0.269,0.1,0.4a7.459,7.459,0,0,0,.264.85c0.057,0.143.119,0.287,0.185,0.43a7.243,7.243,0,0,0,.4.745c0.078,0.125.144,0.251,0.235,0.37,0.041,0.056.071,0.12,0.111,0.175Zm75.966,0h-4.3a4.3,4.3,0,0,1-4.3-4.3V356.767a1.433,1.433,0,0,0-1.433-1.434H850.033V343.867h22.934v4.3A1.433,1.433,0,0,0,874.4,349.6h48.733v60.2ZM857.2,382.567h5.733v2.866H857.2v-2.866Zm14.333,0h5.734v2.866h-5.734v-2.866Zm14.334,0H891.6v2.866h-5.733v-2.866Zm30.1,32.966h2.866V418.4h-2.866v-2.867Zm-5.734,0H913.1V418.4h-2.867v-2.867Zm-5.733,0h2.867V418.4H904.5v-2.867Zm-5.733,0h2.866V418.4h-2.866v-2.867Zm-5.734,0H895.9V418.4h-2.867v-2.867Zm-45.866,0h2.866V418.4h-2.866v-2.867Zm5.733,0h2.867V418.4H852.9v-2.867Zm5.733,0H861.5V418.4h-2.867v-2.867Zm5.734,0h2.866V418.4h-2.866v-2.867Zm5.733,0h2.867V418.4H870.1v-2.867Z" transform="translate(-740 -241)"/>
  <path class="cls-7" d="M1323.26,347.415h-11.62a4.71,4.71,0,1,0-7.62-3.711,4.646,4.646,0,0,0,.55,2.194l-1.67,1.517h-22.85a4.729,4.729,0,0,0-8.69,0h-25.62a3.736,3.736,0,0,0-3.74,3.72v9.157a1.245,1.245,0,0,0,2.49,0v-9.157a1.246,1.246,0,0,1,1.25-1.24h25.29a4.693,4.693,0,0,0,.39,1.347l-10.5,9.474a4.7,4.7,0,1,0,2.14,3.937,4.565,4.565,0,0,0-.49-2.083l10.47-9.436a4.722,4.722,0,0,0,6.07-.624l8.48,5.015a4.815,4.815,0,0,0-.09.936,4.725,4.725,0,0,0,9.45,0,4.626,4.626,0,0,0-.4-1.9l7.32-6.669h19.39a1.246,1.246,0,0,1,1.25,1.24v30.638a1.245,1.245,0,0,0,2.49,0V351.135A3.736,3.736,0,0,0,1323.26,347.415Zm-64.92,19.462a2.224,2.224,0,1,1,2.23-2.224A2.237,2.237,0,0,1,1258.34,366.877Zm17.37-15.4a2.224,2.224,0,1,1,2.23-2.224A2.231,2.231,0,0,1,1275.71,351.479Zm16.51,9.206a2.224,2.224,0,1,1,2.24-2.224A2.229,2.229,0,0,1,1292.22,360.685Zm2.75-6.047a4.731,4.731,0,0,0-6.25.67l-8.42-4.977a3.211,3.211,0,0,0,.09-0.436h19.79Zm13.77-8.711a2.224,2.224,0,1,1,2.24-2.223A2.229,2.229,0,0,1,1308.74,345.927ZM1327,386.732a1.245,1.245,0,0,0-2.49,0v9.328h-9.17V356.5a1.245,1.245,0,0,0-1.25-1.24h-9.37a1.237,1.237,0,0,0-1.24,1.24V396.06h-4.66v-16.5a1.245,1.245,0,0,0-1.25-1.24h-9.37a1.243,1.243,0,0,0-1.24,1.24v16.5h-4.66V363.552a1.245,1.245,0,0,0-1.25-1.24h-9.37a1.243,1.243,0,0,0-1.24,1.24v17.129a1.245,1.245,0,0,0,2.49,0v-5.7h6.88V396.06h-6.88V385.64a1.245,1.245,0,0,0-2.49,0v10.42h-4.66v-16.5a1.245,1.245,0,0,0-1.25-1.24h-9.36a1.245,1.245,0,0,0-1.25,1.24v16.5h-9.43V365.251a1.245,1.245,0,0,0-2.49,0v41.038a3.735,3.735,0,0,0,3.74,3.719h27.28l-0.71,6.161h-5.92a1.237,1.237,0,0,0-1.24,1.24v4.351a1.237,1.237,0,0,0,1.24,1.24h36.22a1.237,1.237,0,0,0,1.24-1.24v-4.351a1.237,1.237,0,0,0-1.24-1.24h-5.92l-0.71-6.161h27.28a3.735,3.735,0,0,0,3.74-3.719V386.732h0Zm-21.03-29h6.88v2.651h-6.88v-2.651Zm0,5.131h6.88v2.58h-6.88v-2.58Zm0,5.06h6.88V396.06h-6.88V367.928ZM1289.45,380.8h6.88v2.651h-6.88V380.8Zm0,5.131h6.88v2.58h-6.88v-2.58Zm0,5.06h6.88v5.073h-6.88v-5.073Zm-16.52-23.545v-2.65h6.88v2.65h-6.88Zm0,5.061v-2.581h6.88V372.5h-6.88Zm-16.52,8.293h6.88v2.651h-6.88V380.8Zm0,5.131h6.88v2.58h-6.88v-2.58Zm0,5.06h6.88v5.073h-6.88v-5.073Zm44.95,27.662v1.871h-33.72v-1.871h33.72Zm-26.55-2.48,0.71-6.161h17.96l0.71,6.161h-19.38Zm48.45-8.64h-77.52a1.246,1.246,0,0,1-1.25-1.24v-7.7h80.02v7.7h0A1.246,1.246,0,0,1,1323.26,407.529Z" transform="translate(-1042 -239)"/>
  <path class="cls-7" d="M1651,413.968a3.878,3.878,0,0,0,3.87,3.871h6.45v2.58h-5.16V423h28.39v-2.581h-5.16v-2.58h6.45a3.878,3.878,0,0,0,3.87-3.871V410.1H1651v3.871Zm25.81,6.451H1663.9v-2.58h12.91v2.58Zm-23.23-7.742h33.55v1.291a1.293,1.293,0,0,1-1.29,1.29h-30.97a1.293,1.293,0,0,1-1.29-1.29v-1.291Zm32.26-25.806h-30.97a3.878,3.878,0,0,0-3.87,3.871v16.774h2.58V390.742a1.293,1.293,0,0,1,1.29-1.29h30.97a1.293,1.293,0,0,1,1.29,1.29v16.774h2.58V390.742A3.878,3.878,0,0,0,1685.84,386.871Zm6.45,27.1a3.878,3.878,0,0,0,3.87,3.871h6.45v2.58h-5.16V423h28.39v-2.581h-5.16v-2.58h6.45a3.878,3.878,0,0,0,3.87-3.871V410.1h-38.71v3.871Zm25.81,6.451h-12.91v-2.58h12.91v2.58Zm-23.23-7.742h33.55v1.291a1.293,1.293,0,0,1-1.29,1.29h-30.97a1.293,1.293,0,0,1-1.29-1.29v-1.291Zm32.26-25.806h-30.97a3.878,3.878,0,0,0-3.87,3.871v16.774h2.58V390.742a1.293,1.293,0,0,1,1.29-1.29h30.97a1.293,1.293,0,0,1,1.29,1.29v16.774H1731V390.742A3.878,3.878,0,0,0,1727.13,386.871Zm-49.03-7.742h25.8a2.578,2.578,0,0,0,2.58-2.581v-5.161a2.579,2.579,0,0,0-2.58-2.581h-1.29v-2.58h1.29a2.579,2.579,0,0,0,2.58-2.581v-5.161a2.579,2.579,0,0,0-2.58-2.581h-1.29v-2.58h1.29a2.579,2.579,0,0,0,2.58-2.581v-5.161A2.578,2.578,0,0,0,1703.9,343h-25.8a2.578,2.578,0,0,0-2.58,2.581v5.161a2.579,2.579,0,0,0,2.58,2.581h1.29v2.58h-1.29a2.579,2.579,0,0,0-2.58,2.581v5.161a2.579,2.579,0,0,0,2.58,2.581h1.29v2.58h-1.29a2.579,2.579,0,0,0-2.58,2.581v5.161A2.578,2.578,0,0,0,1678.1,379.129Zm0-28.387v-5.161h25.8v5.161h-25.8Zm21.93,2.581v2.58h-18.06v-2.58h18.06Zm-21.93,10.322v-5.161h25.8v5.161h-25.8Zm21.93,2.581v2.58h-18.06v-2.58h18.06Zm-21.93,5.161h25.8v5.161h-25.8v-5.161h0Zm36.13,9.032a3.87,3.87,0,1,0,3.87-3.871A3.871,3.871,0,0,0,1714.23,380.419Zm5.16,0a1.29,1.29,0,1,1-1.29-1.29A1.293,1.293,0,0,1,1719.39,380.419Zm3.87-5.161a3.87,3.87,0,1,0,3.87-3.871A3.871,3.871,0,0,0,1723.26,375.258Zm5.16,0a1.29,1.29,0,1,1-1.29-1.29A1.293,1.293,0,0,1,1728.42,375.258Zm-2.58-18.064v11.612h2.58V357.194a6.456,6.456,0,0,0-6.45-6.452h-12.91v2.581h12.91A3.877,3.877,0,0,1,1725.84,357.194Zm-9.03,2.58v14.194h2.58V359.774a3.878,3.878,0,0,0-3.87-3.871h-6.46v2.581h6.46A1.293,1.293,0,0,1,1716.81,359.774Zm-56.78,20.645a3.87,3.87,0,1,0,3.87-3.871A3.877,3.877,0,0,0,1660.03,380.419Zm5.16,0a1.29,1.29,0,1,1-1.29-1.29A1.293,1.293,0,0,1,1665.19,380.419Zm-10.32-1.29a3.871,3.871,0,1,0-3.87-3.871A3.871,3.871,0,0,0,1654.87,379.129Zm0-5.161a1.29,1.29,0,1,1-1.29,1.29A1.293,1.293,0,0,1,1654.87,373.968Zm1.29-16.774a3.877,3.877,0,0,1,3.87-3.871h12.91v-2.581h-12.91a6.456,6.456,0,0,0-6.45,6.452v11.612h2.58V357.194Zm16.78-1.291h-6.46a3.878,3.878,0,0,0-3.87,3.871v14.194h2.58V359.774a1.293,1.293,0,0,1,1.29-1.29h6.46V355.9Z" transform="translate(-1351 -243)"/>
  <path class="cls-8" d="M748.287,439.581H729.713a0.707,0.707,0,0,0-.7.71,0.718,0.718,0,0,0,.7.709H748.3a0.706,0.706,0,0,0,.7-0.709A0.721,0.721,0,0,0,748.287,439.581Zm-19.27-6.28L729,436.675a0.741,0.741,0,0,0,.2.519,0.674,0.674,0,0,0,.492.207h0l3.294-.017a0.671,0.671,0,0,0,.492-0.208l11.375-11.591a0.741,0.741,0,0,0,0-1.021l-3.259-3.357a0.708,0.708,0,0,0-1,0l-2.275,2.336h0l-9.1,9.256A0.78,0.78,0,0,0,729.017,433.3Zm12.088-10.571,2.292,2.335-1.29,1.315-2.292-2.335Zm-10.679,10.882,8.387-8.547,2.292,2.336-8.387,8.53-2.309.017Z" transform="translate(-629 -371.031)"/>
  <path class="cls-7" d="M454.188,345H440.266A1.192,1.192,0,0,0,439,346.258v75.484A1.192,1.192,0,0,0,440.266,423h13.922a1.192,1.192,0,0,0,1.265-1.258V346.258A1.192,1.192,0,0,0,454.188,345Zm-1.266,5.032h-3.8v2.516h3.8v2.516h-3.8v2.517h3.8V360.1h-3.8v2.516h3.8v2.516h-3.8v2.516h3.8v2.516h-3.8v2.516h3.8v2.517h-3.8v2.516h3.8v2.516h-3.8v2.516h3.8v2.516h-3.8v2.516h3.8v2.516h-3.8v2.516h3.8v2.517h-3.8v2.516h3.8v2.516h-3.8v2.516h3.8v2.516h-3.8V407.9h3.8v2.516h-3.8v2.517h3.8v2.516h-3.8v2.516h3.8v2.516H441.531V347.516h11.391v2.516Zm13.162,10.82a1.258,1.258,0,0,0-1.645-.629,1.517,1.517,0,0,0-.633.629l-3.164,7.548a0.755,0.755,0,0,0-.126.5v52.839A1.192,1.192,0,0,0,461.781,423h6.328a1.192,1.192,0,0,0,1.266-1.258V368.9a0.75,0.75,0,0,0-.127-0.5Zm-1.139,3.774,1.266,3.019H463.68Zm1.9,55.858h-3.8v-2.516h3.8v2.516Zm0-5.032h-3.8v-1.258h3.8v1.258Zm0-3.775h-3.8V370.161h3.8v41.516Zm9.745-32.332a1.16,1.16,0,0,0-1.392-.251,1.1,1.1,0,0,0-.76,1.132v41.516A1.193,1.193,0,0,0,475.7,423h41.766a1.108,1.108,0,0,0,1.139-.755,1.145,1.145,0,0,0-.253-1.384Zm0.38,41.139V383.245l37.462,37.239H476.969Zm10.758-4.4a6.291,6.291,0,1,0-6.329-6.291A6.249,6.249,0,0,0,487.727,416.081Zm0-10.065a3.774,3.774,0,1,1-3.8,3.774A3.718,3.718,0,0,1,487.727,406.016Zm-25.946-52.21H475.7a1.192,1.192,0,0,0,1.266-1.258v-6.29A1.192,1.192,0,0,0,475.7,345H464.819a4.254,4.254,0,0,0-4.3,4.277v3.271A1.192,1.192,0,0,0,461.781,353.806Zm6.328-6.29h6.328v3.774h-6.328v-3.774Zm-5.062,1.761a1.725,1.725,0,0,1,1.772-1.761h0.759v3.774h-2.531v-2.013Zm26.578,17.11h5.062a1.258,1.258,0,1,0,0-2.516h-5.062A1.258,1.258,0,1,0,489.625,366.387Zm1.266,7.548h10.125a8.837,8.837,0,0,0,8.732-7.548h5.19a1.192,1.192,0,0,1,1.265,1.258v7.549a1.192,1.192,0,0,1-1.265,1.258H495.953a3.774,3.774,0,1,0,0,7.548h15.188a1.258,1.258,0,1,1,0,2.516H499.75a3.775,3.775,0,1,0,0,7.549h7.594a1.192,1.192,0,0,1,1.265,1.258v6.29a1.266,1.266,0,0,0,2.532,0v-6.29a3.719,3.719,0,0,0-3.8-3.775H499.75a1.258,1.258,0,1,1,0-2.516h11.391a3.774,3.774,0,1,0,0-7.548H495.953a1.258,1.258,0,1,1,0-2.516h18.985a3.718,3.718,0,0,0,3.8-3.774v-7.549a3.717,3.717,0,0,0-3.8-3.774h-5.19a8.837,8.837,0,0,0-8.732-7.548H490.891A8.806,8.806,0,1,0,490.891,373.935Zm0-15.1h10.125a6.29,6.29,0,1,1,0,12.58H490.891A6.29,6.29,0,1,1,490.891,358.839ZM517.469,345H520v2.516h-2.531V345Zm0,5.032H520v2.516h-2.531v-2.516ZM512.406,345h2.532v2.516h-2.532V345Zm0,5.032h2.532v2.516h-2.532v-2.516ZM507.344,345h2.531v2.516h-2.531V345Zm-5.063,0h2.532v2.516h-2.532V345Zm15.188,10.064H520v2.517h-2.531v-2.517Zm-8.86,50.323h2.532V407.9h-2.532v-2.516Z" transform="translate(-439 -145)"/>
  <path class="cls-7" d="M920.766,382.266h-7.407V353.875a1.165,1.165,0,0,0-1.234-1.234H883.734v-7.407A1.166,1.166,0,0,0,882.5,344H844.234A1.166,1.166,0,0,0,843,345.234V383.5a1.166,1.166,0,0,0,1.234,1.234h7.407v28.391a1.165,1.165,0,0,0,1.234,1.234h28.391v7.407A1.166,1.166,0,0,0,882.5,423h38.266A1.166,1.166,0,0,0,922,421.766V383.5A1.166,1.166,0,0,0,920.766,382.266Zm-39.5,29.625H854.109V384.734h18.516v7.407a1.166,1.166,0,0,0,1.234,1.234h7.407v18.516Zm-27.157-29.625v-6.172h18.516v6.172H854.109Zm27.157,8.64h-6.172v-6.172h6.172v6.172Zm0-8.64h-6.172v-6.172h6.172v6.172Zm0-8.641h-6.172V355.109h6.172v18.516Zm0-20.984h-7.407a1.166,1.166,0,0,0-1.234,1.234v19.75h-19.75a1.166,1.166,0,0,0-1.234,1.234v7.407h-6.172v-35.8h35.8v6.172Zm2.468,2.468h27.157v27.157H892.375v-7.407a1.166,1.166,0,0,0-1.234-1.234h-7.407V355.109Zm27.157,29.625v6.172H892.375v-6.172h18.516Zm-27.157-8.64h6.172v6.172h-6.172v-6.172Zm0,8.64h6.172v6.172h-6.172v-6.172Zm0,8.641h6.172v18.516h-6.172V393.375Zm35.8,27.156h-35.8v-6.172h7.407a1.166,1.166,0,0,0,1.234-1.234v-19.75h19.75a1.166,1.166,0,0,0,1.234-1.234v-7.407h6.172v35.8Zm-69.125-69.125h2.469v2.469h-2.469v-2.469Zm4.938,0h2.469v2.469h-2.469v-2.469Zm4.937,0h2.469v2.469h-2.469v-2.469Zm-9.875,4.938h2.469v2.468h-2.469v-2.468Zm4.938,0h2.469v2.468h-2.469v-2.468Zm4.937,0h2.469v2.468h-2.469v-2.468Zm-9.875,4.937h2.469v2.469h-2.469v-2.469Zm4.938,0h2.469v2.469h-2.469v-2.469Zm4.937,0h2.469v2.469h-2.469v-2.469ZM902.25,403.25h2.469v2.469H902.25V403.25Zm4.937,0h2.469v2.469h-2.469V403.25Zm4.938,0h2.469v2.469h-2.469V403.25Zm-9.875,4.937h2.469v2.469H902.25v-2.469Zm4.937,0h2.469v2.469h-2.469v-2.469Zm4.938,0h2.469v2.469h-2.469v-2.469Zm-9.875,4.938h2.469v2.469H902.25v-2.469Zm4.937,0h2.469v2.469h-2.469v-2.469Zm4.938,0h2.469v2.469h-2.469v-2.469Zm-18.516-53.078h2.469v2.469h-2.469v-2.469Zm4.938,0h2.469v2.469h-2.469v-2.469Zm4.937,0h2.469v2.469h-2.469v-2.469Zm-9.875,4.937h2.469v2.469h-2.469v-2.469Zm4.938,0h2.469v2.469h-2.469v-2.469Zm4.937,0h2.469v2.469h-2.469v-2.469ZM914.594,344h2.468v2.469h-2.468V344Zm4.937,0H922v2.469h-2.469V344Zm0,4.937H922v2.469h-2.469v-2.469Zm-25.922,20.985h2.469v2.469h-2.469v-2.469Zm4.938,0h2.469v2.469h-2.469v-2.469Zm4.937,0h2.469v2.469h-2.469v-2.469Zm-44.437,24.687h2.469v2.469h-2.469v-2.469Zm4.937,0h2.469v2.469h-2.469v-2.469Zm4.938,0h2.469v2.469h-2.469v-2.469Zm-9.875,4.938h2.469v2.469h-2.469v-2.469Zm4.937,0h2.469v2.469h-2.469v-2.469Zm4.938,0h2.469v2.469h-2.469v-2.469Zm-9.875,4.937h2.469v2.469h-2.469v-2.469Zm4.937,0h2.469v2.469h-2.469v-2.469ZM843,415.594h2.469v2.468H843v-2.468Zm0,4.937h2.469V423H843v-2.469Zm4.938,0h2.468V423h-2.468v-2.469Zm20.984-16.047h2.469v2.469h-2.469v-2.469Z" transform="translate(-743 -144)"/>
  <path class="cls-7" d="M1327,354V344h-10v3.75h-60V344h-10v10h3.75v60H1247v10h10v-3.75h60V424h10V414h-3.75V354H1327Zm-77.5-2.5v-5h5v5h-5Zm5,70h-5v-5h5v5Zm62.5-3.75h-60V414h-3.75V354H1257v-3.75h60V354h3.75v60H1317v3.75Zm7.5-1.25v5h-5v-5h5Zm-5-65v-5h5v5h-5ZM1308.25,374v-7.5a1.181,1.181,0,0,0-1.25-1.25h-40a1.181,1.181,0,0,0-1.25,1.25V374a1.181,1.181,0,0,0,1.25,1.25h9.38a5.6,5.6,0,0,1,5.62,5.625V406.5a1.181,1.181,0,0,0,1.25,1.25h7.5a1.181,1.181,0,0,0,1.25-1.25V380.875a5.6,5.6,0,0,1,5.62-5.625H1307A1.181,1.181,0,0,0,1308.25,374Zm-2.5-1.25h-8.13a8.111,8.111,0,0,0-8.12,8.125V405.25h-5V380.875a8.1,8.1,0,0,0-8.12-8.125h-8.13v-5h37.5v5ZM1307,409h2.5v2.5H1307V409Zm5,0h2.5v2.5H1312V409Zm0-5h2.5v2.5H1312V404Zm-52.5,0h2.5v2.5h-2.5V404Zm0,5h2.5v2.5h-2.5V409Zm5,0h2.5v2.5h-2.5V409Zm0-52.625h2.5v2.5h-2.5v-2.5Zm-5,0h2.5v2.5h-2.5v-2.5Zm0,5h2.5v2.5h-2.5v-2.5Zm52.5,0h2.5v2.5H1312v-2.5Zm0-5h2.5v2.5H1312v-2.5Zm-5,0h2.5v2.5H1307v-2.5Z" transform="translate(-1047 -144)"/>
  <path class="cls-7" d="M1730,355V345h-10v3.75h-25V345h-10v3.75h-25V345h-10v10h3.75v25H1650v10h3.75v25H1650v10h10v-3.75h25V425h10v-3.75h25V425h10V415h-3.75V390H1730V380h-3.75V355H1730Zm-42.5-7.5h5v5h-5v-5Zm-35,5v-5h5v5h-5Zm0,35v-5h5v5h-5Zm5,35h-5v-5h5v5Zm35,0h-5v-5h5v5Zm27.5-3.75h-25V415h-10v3.75h-25V415h-3.75V390H1660V380h-3.75V355H1660v-3.75h25V355h10v-3.75h25V355h3.75v25H1720v10h3.75v25H1720v3.75Zm7.5-1.25v5h-5v-5h5Zm0-35v5h-5v-5h5Zm-5-30v-5h5v5h-5Zm-26.62,8.75h-4.63v17.625a6.313,6.313,0,0,0-2.5,0V361.25h-4.62l-6.63,20,5.37,17.375a3.406,3.406,0,0,0,.63,3.875,3.744,3.744,0,0,0,.25,5.25,3.482,3.482,0,0,0,2.5,1h7.5a3.757,3.757,0,0,0,3.75-3.75,3.942,3.942,0,0,0-1-2.5,3.693,3.693,0,0,0,1-2.5,4.649,4.649,0,0,0-.25-1.375l5.37-17.375Zm-5.88,20a3.75,3.75,0,1,1-3.75,3.75A3.68,3.68,0,0,1,1690,381.25Zm3.75,25h-7.5a1.25,1.25,0,0,1,0-2.5h7.5A1.25,1.25,0,0,1,1693.75,406.25Zm0-5h-7.5a1.25,1.25,0,0,1,0-2.5h7.5A1.25,1.25,0,0,1,1693.75,401.25Zm1.63-5h-10.63l-4.63-15,5.76-17.5h0.37V380a6.25,6.25,0,1,0,8.75,1.25,6.045,6.045,0,0,0-1.25-1.25V363.75h0.37l5.88,17.5ZM1667.5,357.5h2.5V360h-2.5v-2.5Zm-5,0h2.5V360h-2.5v-2.5Zm0,5h2.5V365h-2.5v-2.5Zm52.5,0h2.5V365H1715v-2.5Zm0-5h2.5V360H1715v-2.5Zm-5,0h2.5V360H1710v-2.5Zm0,52.5h2.5v2.5H1710V410Zm5,0h2.5v2.5H1715V410Zm0-5h2.5v2.5H1715V405Zm-52.5,0h2.5v2.5h-2.5V405Zm0,5h2.5v2.5h-2.5V410Zm5,0h2.5v2.5h-2.5V410Z" transform="translate(-1350 -145)"/>
  <path class="cls-7" d="M389.966,359.07a0.7,0.7,0,0,0-.559-0.475l-7.8-1.114-3.51-7.094a0.7,0.7,0,0,0-.62-0.387h0a0.691,0.691,0,0,0-.621.392l-3.464,7.114-7.8,1.166a0.7,0.7,0,0,0-.56.475,0.692,0.692,0,0,0,.18.712l5.66,5.515-1.309,7.811a0.691,0.691,0,0,0,.277.681,0.682,0.682,0,0,0,.406.134,0.656,0.656,0,0,0,.323-0.083l6.963-3.709,6.983,3.668a0.7,0.7,0,0,0,.319.078h0a0.7,0.7,0,0,0,.692-0.7,0.562,0.562,0,0,0-.02-0.16l-1.35-7.764,5.624-5.546A0.685,0.685,0,0,0,389.966,359.07Zm-7.03,5.525a0.691,0.691,0,0,0-.195.619l1.175,6.774-6.065-3.183a0.7,0.7,0,0,0-.647,0l-6.044,3.219,1.134-6.784a0.7,0.7,0,0,0-.2-0.614l-4.906-4.788,6.768-1.011a0.688,0.688,0,0,0,.519-0.382l3.007-6.175,3.048,6.16a0.7,0.7,0,0,0,.523.382l6.773,0.97Z" transform="translate(-365 -50)"/>
  <path class="cls-7" d="M392,401.884h-3.533a11.024,11.024,0,0,0-10.351-10.351V388h-1.237v3.533a11.023,11.023,0,0,0-10.346,10.351H363v1.237h3.533a11.023,11.023,0,0,0,10.351,10.346V417h1.237v-3.533a11.008,11.008,0,0,0,10.346-10.346H392v-1.237Zm-4.77,0h-2.847a6.9,6.9,0,0,0-6.267-6.267V392.77A9.774,9.774,0,0,1,387.23,401.884Zm-4.09,1.231a5.716,5.716,0,0,1-5.024,5.025v-1.876h-1.237v1.882a5.655,5.655,0,0,1-5.025-5.025h1.882v-1.237H371.86a5.716,5.716,0,0,1,5.024-5.024v1.876h1.237V396.86a5.717,5.717,0,0,1,5.025,5.024H381.27v1.237h1.87v-0.006Zm-6.256-10.345v2.847a6.9,6.9,0,0,0-6.267,6.267H367.77A9.774,9.774,0,0,1,376.884,392.77Zm-9.114,10.345h2.847a6.9,6.9,0,0,0,6.267,6.268v2.847A9.774,9.774,0,0,1,367.77,403.115Zm10.346,9.115v-2.847a6.9,6.9,0,0,0,6.267-6.268h2.847A9.774,9.774,0,0,1,378.116,412.23Z" transform="translate(-318 -88)"/>
  <path class="cls-7" d="M783,362.5A12.5,12.5,0,1,0,795.5,350,12.516,12.516,0,0,0,783,362.5Zm5.225,8.562a34.566,34.566,0,0,1,3.9-2.276,0.82,0.82,0,0,0,.462-0.738v-1.569a0.624,0.624,0,0,0-.088-0.318,5.39,5.39,0,0,1-.651-1.918,0.622,0.622,0,0,0-.451-0.507,3.417,3.417,0,0,1-.456-1.118,2.821,2.821,0,0,1-.159-1.041,0.628,0.628,0,0,0,.59-0.836,3.575,3.575,0,0,1-.088-2.138,4.165,4.165,0,0,1,1.118-1.948,5.4,5.4,0,0,1,1.056-.872s0.016-.01.021-0.015a3.938,3.938,0,0,1,.989-0.508h0a3.2,3.2,0,0,1,.887-0.164,3.684,3.684,0,0,1,2.256.477,2.711,2.711,0,0,1,1.021.923,0.634,0.634,0,0,0,.512.339,0.949,0.949,0,0,1,.534.379c0.3,0.395.717,1.42,0.205,3.9a0.626,0.626,0,0,0,.333.687,2.51,2.51,0,0,1-.149,1.087,3.985,3.985,0,0,1-.4,1.04,0.66,0.66,0,0,0-.328.041,0.631,0.631,0,0,0-.374.467,5.861,5.861,0,0,1-.477,1.538,0.639,0.639,0,0,0-.062.272v1.815a0.809,0.809,0,0,0,.462.738,34.444,34.444,0,0,1,3.9,2.277A11.2,11.2,0,0,1,788.225,371.062Zm7.275-19.806a11.238,11.238,0,0,1,8.209,18.919,35.993,35.993,0,0,0-4.03-2.394v-1.405a6.54,6.54,0,0,0,.41-1.215c0.5-.19.856-0.774,1.189-1.948a2.515,2.515,0,0,0-.082-2.256c0.375-2.056.2-3.574-.507-4.512a2.184,2.184,0,0,0-1.1-.8,4.027,4.027,0,0,0-1.343-1.169,4.908,4.908,0,0,0-2.963-.641,4.49,4.49,0,0,0-1.21.231h-0.006a5.2,5.2,0,0,0-1.286.656,6.962,6.962,0,0,0-1.282,1.056,5.305,5.305,0,0,0-1.431,2.513,4.791,4.791,0,0,0-.056,2.235,1.036,1.036,0,0,0-.19.18,2.446,2.446,0,0,0-.092,2.25,3.5,3.5,0,0,0,.933,1.81,6.646,6.646,0,0,0,.661,1.877v1.138a36.379,36.379,0,0,0-4.029,2.394A11.233,11.233,0,0,1,795.5,351.256Z" transform="translate(-690 -50)"/>
  <path class="cls-7" d="M813.931,401.264a0.74,0.74,0,0,0-.974-0.353,4.23,4.23,0,0,1-3.722-.1,8.723,8.723,0,0,0-3.863-8.369,9.109,9.109,0,0,0-6.738-1.351l-2.629-1.944a0.747,0.747,0,0,0-.884,0l-9.829,7.265a0.71,0.71,0,0,0-.144,1.008,0.743,0.743,0,0,0,1.028.141l9.387-6.938,1.33,0.983a9.137,9.137,0,0,0-1.059.514,0.746,0.746,0,0,0-.713.092l-9.829,7.265a0.715,0.715,0,0,0-.292.574V412.28a0.726,0.726,0,0,0,.734.72h19.657a0.727,0.727,0,0,0,.735-0.72V402.9a9.077,9.077,0,0,0,2.3-.88,5.7,5.7,0,0,0,2.765.717,5.774,5.774,0,0,0,2.379-.515A0.714,0.714,0,0,0,813.931,401.264Zm-17.166,10.3h-2.4v-5.219h2.4v5.219Zm1.469,0v-5.939a0.727,0.727,0,0,0-.735-0.719h-3.873a0.727,0.727,0,0,0-.734.719v5.939h-6.424V400.407l8.624-6.374a8.737,8.737,0,0,0,3.929,7.59,9.084,9.084,0,0,0,5.029,1.513q0.3,0,.607-0.02v8.445h-6.423Zm1.611-11.129a7.3,7.3,0,0,1-3.219-7.1,7.629,7.629,0,0,1,7.922.3,7.309,7.309,0,0,1,3.287,6.277l-6.47-4.3a0.743,0.743,0,0,0-1.019.192,0.71,0.71,0,0,0,.2,1l6.469,4.3A7.629,7.629,0,0,1,799.845,400.432Z" transform="translate(-645 -89)"/>
  <path class="cls-7" d="M805.04,432H786.96a2.926,2.926,0,0,0-2.96,2.883v11.17a2.926,2.926,0,0,0,2.96,2.884h8.367v2.752h-4.171a0.656,0.656,0,1,0,0,1.311h9.688a0.656,0.656,0,1,0,0-1.311h-4.171v-2.752h8.367a2.926,2.926,0,0,0,2.96-2.884v-11.17A2.923,2.923,0,0,0,805.04,432Zm-18.08,1.311h18.085a1.6,1.6,0,0,1,1.614,1.572v9.335H785.346v-9.335A1.593,1.593,0,0,1,786.96,433.311Zm18.08,14.315H786.96a1.6,1.6,0,0,1-1.614-1.573v-0.524h21.308v0.524A1.6,1.6,0,0,1,805.04,447.626Z" transform="translate(-594 -132)"/>
  <path class="cls-7" d="M1111,351.3a11.7,11.7,0,1,1-11.7,11.7,11.714,11.714,0,0,1,11.7-11.7m0-1.3a13,13,0,1,0,13,13,13,13,0,0,0-13-13h0Zm5.19,11.59-6.92-4.556c-1.19-.786-2.17-0.259-2.17,1.171v9.588c0,1.43.98,1.959,2.18,1.176l6.91-4.526A1.581,1.581,0,0,0,1116.19,361.59Zm-0.92,1.9-6.15,4.023a0.425,0.425,0,0,1-.72-0.392v-8.239a0.424,0.424,0,0,1,.72-0.39l6.15,4.047A0.527,0.527,0,0,1,1115.27,363.487Z" transform="translate(-860 -50)"/>
  <path class="cls-7" d="M1123.67,400.271l-1.83-.31a10.142,10.142,0,0,0-.73-1.77l1.08-1.5a1.608,1.608,0,0,0-.18-2.069L1120.39,393a1.594,1.594,0,0,0-2.06-.174l-1.51,1.076a10.167,10.167,0,0,0-1.84-.755l-0.3-1.8a1.607,1.607,0,0,0-1.59-1.342h-2.28a1.607,1.607,0,0,0-1.59,1.342l-0.31,1.846a10.212,10.212,0,0,0-1.77.744l-1.49-1.075a1.6,1.6,0,0,0-.94-0.3,1.575,1.575,0,0,0-1.13.473l-1.63,1.618a1.609,1.609,0,0,0-.17,2.07l1.09,1.526a10.4,10.4,0,0,0-.73,1.776l-1.8.3a1.6,1.6,0,0,0-1.34,1.586V404.2a1.6,1.6,0,0,0,1.34,1.586l1.85,0.315a10.363,10.363,0,0,0,.74,1.765l-1.07,1.488a1.608,1.608,0,0,0,.18,2.069l1.61,1.619a1.614,1.614,0,0,0,1.14.472,1.574,1.574,0,0,0,.93-0.3l1.52-1.087a10.455,10.455,0,0,0,1.72.707l0.31,1.824a1.6,1.6,0,0,0,1.58,1.342h2.29a1.607,1.607,0,0,0,1.59-1.342l0.31-1.824a10.656,10.656,0,0,0,1.77-.734l1.5,1.076a1.627,1.627,0,0,0,.94.3h0a1.574,1.574,0,0,0,1.13-.472l1.62-1.619a1.608,1.608,0,0,0,.18-2.069l-1.08-1.51a9.746,9.746,0,0,0,.73-1.771l1.83-.3a1.6,1.6,0,0,0,1.34-1.586v-2.286A1.582,1.582,0,0,0,1123.67,400.271Zm-0.13,3.872a0.132,0.132,0,0,1-.11.141l-2.29.381a0.73,0.73,0,0,0-.58.537,8.6,8.6,0,0,1-.95,2.276,0.766,0.766,0,0,0,.03.8l1.35,1.89a0.158,0.158,0,0,1-.02.184l-1.62,1.619a0.13,0.13,0,0,1-.1.043,0.133,0.133,0,0,1-.08-0.027l-1.89-1.341a0.734,0.734,0,0,0-.8-0.033,8.589,8.589,0,0,1-2.27.945,0.722,0.722,0,0,0-.54.587l-0.39,2.281a0.138,0.138,0,0,1-.14.119h-2.28a0.138,0.138,0,0,1-.14-0.119l-0.38-2.281a0.744,0.744,0,0,0-.54-0.587,8.985,8.985,0,0,1-2.23-.912,0.721,0.721,0,0,0-.37-0.1,0.683,0.683,0,0,0-.42.136l-1.9,1.352a0.2,0.2,0,0,1-.08.027,0.149,0.149,0,0,1-.11-0.043l-1.62-1.619a0.142,0.142,0,0,1-.01-0.184l1.33-1.874a0.755,0.755,0,0,0,.04-0.8,8.536,8.536,0,0,1-.96-2.27,0.744,0.744,0,0,0-.59-0.538l-2.29-.391a0.142,0.142,0,0,1-.12-0.141v-2.287a0.141,0.141,0,0,1,.12-0.141l2.26-.38a0.729,0.729,0,0,0,.59-0.544,8.608,8.608,0,0,1,.93-2.281,0.716,0.716,0,0,0-.04-0.793l-1.35-1.9a0.144,0.144,0,0,1,.02-0.184l1.62-1.619a0.119,0.119,0,0,1,.1-0.043,0.133,0.133,0,0,1,.08.027l1.87,1.336a0.754,0.754,0,0,0,.81.032,8.511,8.511,0,0,1,2.27-.955,0.745,0.745,0,0,0,.54-0.587l0.39-2.3a0.139,0.139,0,0,1,.14-0.12h2.29a0.139,0.139,0,0,1,.14.12l0.38,2.264a0.735,0.735,0,0,0,.54.592,8.871,8.871,0,0,1,2.33.956,0.737,0.737,0,0,0,.8-0.032l1.87-1.347a0.2,0.2,0,0,1,.08-0.027,0.149,0.149,0,0,1,.11.043l1.62,1.619a0.156,0.156,0,0,1,.01.184l-1.34,1.885a0.724,0.724,0,0,0-.03.8,8.6,8.6,0,0,1,.94,2.276,0.728,0.728,0,0,0,.59.538l2.28,0.385a0.142,0.142,0,0,1,.12.142v2.286h-0.01ZM1112,397.387a5.611,5.611,0,1,0,5.61,5.61A5.617,5.617,0,0,0,1112,397.387Zm0,9.754a4.144,4.144,0,1,1,4.15-4.144A4.147,4.147,0,0,1,1112,407.141Z" transform="translate(-820 -90)"/>
  <path class="cls-7" d="M1122,433h-18a3,3,0,0,0-3,3v12a3,3,0,0,0,3,3h18a3,3,0,0,0,3-3V436A3,3,0,0,0,1122,433Zm-4.94,8,6.35-5.442a1.291,1.291,0,0,1,.09.437v12a1.447,1.447,0,0,1-.06.294Zm4.94-6.5a1.324,1.324,0,0,1,.28.057l-9.28,7.956-9.28-7.956a1.324,1.324,0,0,1,.28-0.057h18Zm-19.44,13.793a1.438,1.438,0,0,1-.06-0.293V436a1.291,1.291,0,0,1,.09-0.437l6.35,5.441ZM1104,449.5a1.494,1.494,0,0,1-.43-0.086l6.51-7.433,2.43,2.087a0.751,0.751,0,0,0,.98,0l2.43-2.087,6.51,7.433a1.494,1.494,0,0,1-.43.086h-18Z" transform="translate(-770 -133)"/>
  <path class="cls-7" d="M1615.53,367.248v-3.861a1.064,1.064,0,0,0-1.09-1.033h-8.33v-3.326a4.277,4.277,0,1,0-1.22,0v3.326h-8.33a1.064,1.064,0,0,0-1.09,1.033v3.861A2.954,2.954,0,0,0,1593,370.1a3.08,3.08,0,0,0,6.15,0,2.955,2.955,0,0,0-2.46-2.847V363.5h8.2v3.746a2.964,2.964,0,0,0-2.47,2.847,3.085,3.085,0,0,0,6.16,0,2.964,2.964,0,0,0-2.47-2.847V363.5h8.21v3.746a2.954,2.954,0,0,0-2.47,2.847,3.08,3.08,0,0,0,6.15,0A2.954,2.954,0,0,0,1615.53,367.248Zm-13.09-12.213a3.065,3.065,0,1,1,3.06,2.886A2.978,2.978,0,0,1,1602.44,355.035Zm-4.5,15.06a1.863,1.863,0,1,1-1.86-1.756A1.815,1.815,0,0,1,1597.94,370.1Zm9.42,0a1.863,1.863,0,1,1-1.86-1.756A1.809,1.809,0,0,1,1607.36,370.1Zm7.56,1.756a1.759,1.759,0,1,1,1.86-1.756A1.815,1.815,0,0,1,1614.92,371.851Z" transform="translate(-1213 -51)"/>
  <path class="cls-7" d="M1615.36,402.051a0.577,0.577,0,0,0-.73-0.327l-5.28,1.887,4.27-4.162a0.528,0.528,0,0,0,.17-0.389,0.534,0.534,0,0,0-.17-0.389l-3.3-3.223a0.577,0.577,0,0,0-.8,0l-4.19,4.082,2.35-5.435a0.515,0.515,0,0,0,0-.421,0.523,0.523,0,0,0-.3-0.3l-4.3-1.771a0.569,0.569,0,0,0-.74.293l-2.32,5.368V391.55a0.563,0.563,0,0,0-.57-0.55h-4.88a0.563,0.563,0,0,0-.57.55v20.9a0.563,0.563,0,0,0,.57.55h4.88a0.592,0.592,0,0,0,.2-0.036,0.535,0.535,0,0,0,.19.036,0.553,0.553,0,0,0,.19-0.034l16.6-5.93a0.543,0.543,0,0,0,.33-0.7Zm-18.02,9.849h-2.21V392.1h3.76v19.8h-1.55Zm9.08-17.725-3.2,7.416-0.58,1.344-0.58,1.343-1,2.294-0.59,1.386L1600.02,409v-8.9l3.14-7.265Zm-4.51,13.265,0.6-1.385,1.66-3.838,5.75-5.6,2.5,2.446-5.59,5.452-1.9,1.849-4.41,4.3Zm-0.42,3.834,5.96-5.813,7.04-2.515,1.22,3.246Zm-4.48-1.635a0.547,0.547,0,0,0-.07.007,0.8,0.8,0,0,0-.53.259,0.758,0.758,0,0,0-.19.342,1.127,1.127,0,0,0-.02.186,0.755,0.755,0,0,0,.15.466,0.829,0.829,0,0,0,.66.329,0.578,0.578,0,0,0,.11-0.012,0.81,0.81,0,0,0,.43-0.193,0.726,0.726,0,0,0,.15-0.169,1,1,0,0,0,.12-0.351v-0.07A0.8,0.8,0,0,0,1597.01,409.639Z" transform="translate(-1164 -91)"/>
  <path class="cls-7" d="M1614,448.934l-1.37-14.916a0.576,0.576,0,0,0-.59-0.519h-2.88a4.663,4.663,0,0,0-9.32,0h-2.88a0.583,0.583,0,0,0-.59.519L1595,448.934v0.052a3.3,3.3,0,0,0,3.52,3.014h11.96a3.3,3.3,0,0,0,3.52-3.014v-0.052Zm-9.5-18.791a3.435,3.435,0,0,1,3.48,3.356h-6.96A3.435,3.435,0,0,1,1604.5,430.143Zm5.98,20.71h-11.96a2.157,2.157,0,0,1-2.34-1.848l1.32-14.363h2.34v2a0.585,0.585,0,0,0,.59.571,0.579,0.579,0,0,0,.59-0.571v-2h6.96v2a0.579,0.579,0,0,0,.59.571,0.585,0.585,0,0,0,.59-0.571v-2h2.34l1.32,14.368A2.157,2.157,0,0,1,1610.48,450.853Zm-3.52-9.96-3.49,3.37-1.42-1.375a0.609,0.609,0,0,0-.84,0,0.561,0.561,0,0,0,0,.809l1.84,1.781a0.614,0.614,0,0,0,.84,0l3.9-3.776a0.561,0.561,0,0,0,0-.809A0.606,0.606,0,0,0,1606.96,440.893Z" transform="translate(-1115 -129)"/>
  <path class="cls-9" d="M413.859,323H353.141A3.141,3.141,0,0,0,350,326.141v50.25h0a1.042,1.042,0,0,0,.307.74l12.562,12.562a1.046,1.046,0,0,0,.74.307h23.032v-2.094H364.656v-9.422a3.14,3.14,0,0,0-3.14-3.14h-9.422v-49.2a1.046,1.046,0,0,1,1.047-1.047h60.718a1.047,1.047,0,0,1,1.047,1.047v60.718a1.047,1.047,0,0,1-1.047,1.047H403.391V390h10.468A3.141,3.141,0,0,0,417,386.859V326.141A3.141,3.141,0,0,0,413.859,323Zm-52.343,54.437a1.046,1.046,0,0,1,1.046,1.047v7.942l-8.988-8.989h7.942Zm-4.188-49.2h-0.087a2.052,2.052,0,0,0-2.007,2.094v4.188h2.094v-4.188h4.188v-2.094h-4.188Zm54.438,20.938a16.75,16.75,0,1,0-17.8,16.716v3.174h-3.141a1.047,1.047,0,0,0-1.047,1.047v18.844A1.047,1.047,0,0,0,390.828,390H399.2a1.047,1.047,0,0,0,1.047-1.047V370.109a1.047,1.047,0,0,0-1.047-1.047h-3.14v-3.175A16.77,16.77,0,0,0,411.766,349.172Zm-13.61,38.734h-6.281V376.391h6.281v11.515Zm0-16.75V374.3h-6.281v-3.141h6.281Zm-3.14-7.328a14.656,14.656,0,1,1,14.656-14.656A14.657,14.657,0,0,1,395.016,363.828Zm0-27.219a12.563,12.563,0,1,0,12.562,12.563A12.563,12.563,0,0,0,395.016,336.609Zm0,23.032a10.469,10.469,0,1,1,10.468-10.469A10.469,10.469,0,0,1,395.016,359.641Zm-15.4,1.353-3.447,3.448-8.682-8.682a1.046,1.046,0,0,0-1.48,0l-10.469,10.469,1.48,1.48,9.729-9.729,8.682,8.682a1.046,1.046,0,0,0,1.48,0l4.187-4.187Zm17.49-19.15a4.186,4.186,0,0,0-3.607,6.312l-5.508,5.508,1.481,1.48,5.506-5.506A4.188,4.188,0,1,0,397.109,341.844Zm0,6.281a2.094,2.094,0,1,1,2.094-2.094A2.093,2.093,0,0,1,397.109,348.125ZM365.7,347.078H367.8v6.281H365.7v-6.281Zm9.422,21.984h2.094v6.282h-2.094v-6.282Zm-14.656-26.171h12.562v2.093H360.469v-2.093Zm0-4.188h12.562V340.8H360.469V338.7Zm13.609,42.922h12.563v2.094H374.078v-2.094Zm0-4.188h12.563v2.094H374.078v-2.094Z" transform="translate(50 -223)"/>
  <path class="cls-9" d="M919.839,377.355v2.129h17.032v3.193a3.2,3.2,0,0,1-3.194,3.194H878.323a3.2,3.2,0,0,1-3.194-3.194v-3.193h17.032v-2.129H873v5.322A5.329,5.329,0,0,0,878.323,388h55.354A5.329,5.329,0,0,0,939,382.677v-5.322H919.839Zm-25.549,3.193a3.2,3.2,0,0,0,3.194,3.194h17.032a3.2,3.2,0,0,0,3.194-3.194v-3.193H894.29v3.193Zm2.129-1.064h19.162v1.064a1.065,1.065,0,0,1-1.065,1.065H897.484a1.065,1.065,0,0,1-1.065-1.065v-1.064Zm-17.032,2.129h2.129v2.129h-2.129v-2.129Zm4.258,0h2.129v2.129h-2.129v-2.129Zm4.258,0h2.129v2.129H887.9v-2.129Zm46.839-42.581v36.194h2.129V339.032a5.328,5.328,0,0,0-5.323-5.322h-3.193v2.129h3.193A3.2,3.2,0,0,1,934.742,339.032Zm-57.484,0a3.2,3.2,0,0,1,3.194-3.193h3.193V333.71h-3.193a5.328,5.328,0,0,0-5.323,5.322v36.194h2.129V339.032Zm53.226,36.194h2.129V340.1a2.131,2.131,0,0,0-2.129-2.129h-2.129V340.1h2.129v35.129Zm-51.1-35.129v35.129h2.129V340.1h2.129v-2.129h-2.129A2.131,2.131,0,0,0,879.387,340.1Zm39.387,11.709a3.2,3.2,0,0,0,3.194-3.193v-6.5a5.323,5.323,0,0,0,0-10.43v-6.494a3.193,3.193,0,0,0-6.326-.613,33.19,33.19,0,0,1-17.094,4.871v2.129a35.258,35.258,0,0,0,17.033-4.479v19.6a35.26,35.26,0,0,0-17.033-4.478v2.129a33.324,33.324,0,0,1,17.094,4.872A3.2,3.2,0,0,0,918.774,351.806Zm3.194-17.9a3.174,3.174,0,0,1,0,5.994v-5.994Zm-4.258-8.713a1.065,1.065,0,1,1,2.129,0v23.419a1.065,1.065,0,0,1-2.129,0V325.194Zm-28.742,21.29h7.451V327.323h-7.451a3.2,3.2,0,0,0-3.194,3.193V343.29A3.2,3.2,0,0,0,888.968,346.484ZM887.9,330.516a1.065,1.065,0,0,1,1.065-1.064h5.322v2.129h-4.258v2.129h4.258v2.129h-4.258v2.129h4.258V340.1h-4.258v2.129h4.258v2.129h-5.322a1.065,1.065,0,0,1-1.065-1.065V330.516Zm8.516,18.1H894.29v10.176a4.733,4.733,0,0,0,4.728,4.727h0.124a4.724,4.724,0,0,0,4.485-6.223l-0.821-2.465v-8.344h-2.129v8.688l0.932,2.794a2.6,2.6,0,0,1-2.466,3.421h-0.124a2.6,2.6,0,0,1-2.6-2.6V348.613Z" transform="translate(-373 -222)"/>
  <path class="cls-9" d="M1438.64,356.7h-11.28a3.312,3.312,0,0,0-3.31,3.3v10.531a1.06,1.06,0,0,0,1.06,1.053h15.78a1.06,1.06,0,0,0,1.06-1.053V360A3.312,3.312,0,0,0,1438.64,356.7Zm-6.7,12.777h-5.77V360a1.19,1.19,0,0,1,1.19-1.193h1.73l2.85,3.791v6.88h0Zm-0.21-10.671h2.54l-1.27,1.685Zm8.1,10.671h-5.77V362.6l2.85-3.791h1.73a1.19,1.19,0,0,1,1.19,1.193v9.478h0ZM1433,342.1a8.924,8.924,0,0,0-7.31,3.2,8.522,8.522,0,0,0-1.62,3.259,1.065,1.065,0,0,0,1.04,1.26h1.28A6.69,6.69,0,1,0,1433,342.1Zm0,11.233a4.571,4.571,0,0,1-4.45-3.51h8.9A4.571,4.571,0,0,1,1433,353.328Zm-6.37-5.616c0.73-1.417,2.46-3.511,6.37-3.511a4.591,4.591,0,0,1,4.46,3.511h-10.83ZM1462.31,323a5.546,5.546,0,1,0,5.56,5.546A5.565,5.565,0,0,0,1462.31,323Zm0,8.986a3.44,3.44,0,1,1,3.45-3.44A3.452,3.452,0,0,1,1462.31,331.986Zm4.51,3.37h-9.02a2.184,2.184,0,0,0-2.19,2.176v10.109a1.061,1.061,0,0,0,1.06,1.054h11.27a1.054,1.054,0,0,0,1.06-1.054V337.532A2.182,2.182,0,0,0,1466.82,335.356Zm0.07,11.232h-9.16v-9.056a0.07,0.07,0,0,1,.07-0.07h9.02a0.077,0.077,0,0,1,.07.07v9.056Zm-63.2,14.6a5.546,5.546,0,1,0,5.57,5.546A5.557,5.557,0,0,0,1403.69,361.191Zm0,8.986a3.44,3.44,0,1,1,3.45-3.44A3.45,3.45,0,0,1,1403.69,370.177Zm4.51,3.37h-9.02a2.182,2.182,0,0,0-2.18,2.176v10.109a1.054,1.054,0,0,0,1.06,1.054h11.27a1.061,1.061,0,0,0,1.06-1.054V375.723A2.184,2.184,0,0,0,1408.2,373.547Zm0.07,11.232h-9.16v-9.056a0.069,0.069,0,0,1,.07-0.07h9.02a0.069,0.069,0,0,1,.07.07v9.056h0Zm55.16-28.081a1.051,1.051,0,0,0-1.05,1.053c0,0.271-.01.545-0.01,0.813a1.048,1.048,0,0,0,1.02,1.082h0.03a1.061,1.061,0,0,0,1.06-1.024c0.01-.288.01-0.581,0.01-0.871A1.053,1.053,0,0,0,1463.43,356.7Zm-0.7,7.645a1.064,1.064,0,0,0-1.29.756c-0.13.531-.29,1.066-0.46,1.589a1.06,1.06,0,0,0,2.02.643c0.18-.562.34-1.135,0.49-1.705A1.046,1.046,0,0,0,1462.73,364.343Zm-8.16,14.825a1.055,1.055,0,0,0-1.49-.049c-0.36.341-.74,0.672-1.12,0.994a1.162,1.162,0,0,0-.5.929,1.065,1.065,0,0,0,1.73.788c0.46-.375.9-0.771,1.33-1.173A1.047,1.047,0,0,0,1454.57,379.168Zm5.14-6.833a1.062,1.062,0,0,0-1.45.366c-0.28.472-.58,0.942-0.89,1.4a1.059,1.059,0,0,0,1.76,1.177c0.33-.488.65-0.991,0.95-1.5A1.051,1.051,0,0,0,1459.71,372.335Zm-19.97,15.017a1.065,1.065,0,0,0-1.24-.838c-0.54.1-1.09,0.19-1.64,0.261a1.053,1.053,0,1,0,.28,2.088c0.58-.076,1.17-0.171,1.75-0.28A1.061,1.061,0,0,0,1439.74,387.352Zm8-3.039a1.059,1.059,0,0,0-1.42-.46c-0.49.249-1,.487-1.5,0.707a1.054,1.054,0,1,0,.85,1.928c0.54-.236,1.08-0.491,1.61-0.759A1.055,1.055,0,0,0,1447.74,384.313Zm-17.5,2.586c-0.55-.051-1.1-0.119-1.65-0.2a1.053,1.053,0,1,0-.31,2.083c0.58,0.087,1.18.159,1.77,0.214,0.03,0,.06,0,0.09,0A1.052,1.052,0,0,0,1430.24,386.9Zm-8.04-1.913c-0.51-.2-1.02-0.421-1.52-0.651a1.054,1.054,0,0,0-.89,1.911c0.54,0.247,1.09.482,1.64,0.7A1.052,1.052,0,1,0,1422.2,384.986Zm-7.18-4.085c-0.22-.167-0.43-0.337-0.64-0.507a1.054,1.054,0,1,0-1.34,1.628c0.22,0.182.45,0.365,0.68,0.543A1.056,1.056,0,0,0,1415.02,380.9Zm-12.41-25.045a1.055,1.055,0,0,0-1.09,1.023c-0.01.289-.01,0.582-0.01,0.872a1.055,1.055,0,0,0,2.11,0c0-.271.01-0.545,0.01-0.814A1.048,1.048,0,0,0,1402.61,355.856Zm27.33-28.3a1.059,1.059,0,0,0-1.19-.9c-0.58.078-1.17,0.174-1.75,0.286a1.053,1.053,0,0,0,.2,2.087,1.042,1.042,0,0,0,.2-0.019c0.54-.1,1.09-0.193,1.63-0.266A1.054,1.054,0,0,0,1429.94,327.556Zm7.65-.855c-0.58-.085-1.18-0.154-1.76-0.206a1.053,1.053,0,1,0-.19,2.1c0.55,0.049,1.1.114,1.64,0.193A1.053,1.053,0,0,0,1437.59,326.7Zm8.48,2.49c-0.54-.243-1.09-0.475-1.64-0.689a1.064,1.064,0,0,0-1.37.6,1.054,1.054,0,0,0,.61,1.364c0.51,0.2,1.02.415,1.52,0.641a1.042,1.042,0,0,0,.44.1A1.053,1.053,0,0,0,1446.07,329.191Zm-24.43.4a1.055,1.055,0,0,0-1.39-.536c-0.45.195-.88,0.4-1.31,0.616a1.389,1.389,0,0,0-.79.69,1.067,1.067,0,0,0,.98,1.445,1.042,1.042,0,0,0,.48-0.116c0.49-.25.99-0.489,1.49-0.71A1.043,1.043,0,0,0,1421.64,329.586Zm-17.32,17.923a1.049,1.049,0,0,0-1.32.683c-0.18.559-.35,1.132-0.5,1.7a1.058,1.058,0,0,0,2.05.526c0.14-.531.29-1.065,0.46-1.586A1.05,1.05,0,0,0,1404.32,347.509Zm9.92-13.666a1.059,1.059,0,0,0-1.49-.129c-0.45.377-.89,0.772-1.32,1.173a1.056,1.056,0,0,0,1.45,1.535c0.4-.375.81-0.743,1.23-1.1A1.043,1.043,0,0,0,1414.24,333.843Zm-5.93,6.134a1.051,1.051,0,0,0-1.46.286c-0.33.486-.65,0.989-0.95,1.5a1.051,1.051,0,0,0,.37,1.443,1.072,1.072,0,0,0,1.45-.369c0.28-.471.58-0.94,0.88-1.393A1.043,1.043,0,0,0,1408.31,339.977Zm44.52-6.607c-0.23-.183-0.46-0.364-0.69-0.539a1.053,1.053,0,1,0-1.28,1.672c0.21,0.163.43,0.332,0.64,0.5A1.054,1.054,0,0,0,1452.83,333.37ZM1433,336.479a21.272,21.272,0,1,0,21.35,21.272A21.337,21.337,0,0,0,1433,336.479Zm0,40.438a19.166,19.166,0,1,1,19.23-19.166A19.216,19.216,0,0,1,1433,376.917Z" transform="translate(-797 -223)"/>
  <path class="cls-9" d="M418.859,184.094h-2.093v-1.047A1.047,1.047,0,0,0,415.719,182H390.594a3.131,3.131,0,0,0-2.094.8,3.131,3.131,0,0,0-2.094-.8H361.281a1.047,1.047,0,0,0-1.047,1.047v1.047h-2.093a3.14,3.14,0,0,0-3.141,3.14V233.3a1.047,1.047,0,0,0,1.047,1.047H379.9l-1.675,8.375h-2.282a1.047,1.047,0,0,0-1.047,1.047v3.14H372.8V249H404.2v-2.094h-2.094v-3.14a1.046,1.046,0,0,0-1.046-1.047h-2.284l-1.675-8.375h23.849A1.047,1.047,0,0,0,422,233.3V187.234A3.14,3.14,0,0,0,418.859,184.094Zm-60.718,2.093h2.093v32.454h2.094V184.094h24.078a1.047,1.047,0,0,1,1.047,1.047h2.094a1.047,1.047,0,0,1,1.047-1.047h24.078v34.547h2.094V186.187h2.093a1.047,1.047,0,0,1,1.047,1.047v33.5H357.094v-33.5A1.047,1.047,0,0,1,358.141,186.187Zm41.875,60.719H376.984v-2.094h23.032v2.094Zm-3.371-4.187h-16.29l1.674-8.375H394.97ZM357.094,232.25v-9.422h62.812v9.422H357.094Zm31.406-8.375a3.141,3.141,0,1,0,3.141,3.141A3.141,3.141,0,0,0,388.5,223.875Zm0,4.188a1.047,1.047,0,1,1,1.047-1.047A1.047,1.047,0,0,1,388.5,228.063Zm-23.031-25.125h2.093v2.093h-2.093v-2.093Zm4.187,0h2.094v2.093h-2.094v-2.093Zm8.375,0h6.282v2.093h-6.282v-2.093ZM366.516,199.8h16.75a1.047,1.047,0,0,0,1.047-1.047V188.281a1.047,1.047,0,0,0-1.047-1.047h-16.75a1.047,1.047,0,0,0-1.047,1.047V198.75A1.047,1.047,0,0,0,366.516,199.8Zm1.046-10.469h14.657V197.7H367.562v-8.375Zm26.172,23.031h16.75a1.046,1.046,0,0,0,1.047-1.046V200.844a1.047,1.047,0,0,0-1.047-1.047h-16.75a1.046,1.046,0,0,0-1.046,1.047v10.469A1.046,1.046,0,0,0,393.734,212.359Zm1.047-10.468h14.656v8.375H394.781v-8.375Zm-7.328-14.657h2.094v31.407h-2.094V187.234Zm-21.984,19.891h18.844v2.094H365.469v-2.094Zm0,4.188h18.844v2.093H365.469v-2.093Zm0,4.187h18.844v2.094H365.469V215.5Zm27.219,0h18.843v2.094H392.688V215.5Zm0-20.938h18.843v2.094H392.688v-2.094Zm0-4.187h18.843v2.094H392.688v-2.094Zm0-4.188h10.468v2.094H392.688v-2.094Zm16.749,0h2.094v2.094h-2.094v-2.094Zm-4.187,0h2.094v2.094H405.25v-2.094Z" transform="translate(355 -82)"/>
  <path class="cls-9" d="M937.6,196.293l-12.2-12a1.027,1.027,0,0,0-.718-0.293,1.009,1.009,0,0,0-1.017,1v10a3.025,3.025,0,0,0,3.05,3h10.166a1.027,1.027,0,0,0,.719-0.292A0.989,0.989,0,0,0,937.6,196.293ZM926.717,196a1.008,1.008,0,0,1-1.017-1v-7.586L934.429,196h-7.712Zm9.15,1H937.9v3h-2.033v-3ZM886.05,246a1.009,1.009,0,0,1-1.017-1V187a1.009,1.009,0,0,1,1.017-1h38.633v-2H886.05a3.026,3.026,0,0,0-3.05,3v58a3.026,3.026,0,0,0,3.05,3H931.8v-2H886.05Zm10.167-57h-6.1a1.009,1.009,0,0,0-1.017,1v6a1.008,1.008,0,0,0,1.017,1h6.1a1.008,1.008,0,0,0,1.016-1v-6A1.008,1.008,0,0,0,896.217,189Zm-1.017,6h-4.067v-4H895.2v4Zm4.067,8h-6.1a1.008,1.008,0,0,0-1.017,1v6a1.009,1.009,0,0,0,1.017,1h6.1a1.008,1.008,0,0,0,1.016-1v-6A1.008,1.008,0,0,0,899.267,203Zm-1.017,6h-4.067v-4h4.067v4Zm1.017,9h-6.1a1.009,1.009,0,0,0-1.017,1v6a1.009,1.009,0,0,0,1.017,1h6.1a1.008,1.008,0,0,0,1.016-1v-6A1.008,1.008,0,0,0,899.267,218Zm-1.017,6h-4.067v-4h4.067v4Zm1.017,8h-6.1a1.009,1.009,0,0,0-1.017,1v6a1.009,1.009,0,0,0,1.017,1h6.1a1.008,1.008,0,0,0,1.016-1v-6A1.008,1.008,0,0,0,899.267,232Zm-1.017,6h-4.067v-4h4.067v4Zm16.267-48H900.283a1.008,1.008,0,0,0-1.016,1v2H901.3v-1h12.2v1h2.033v-2A1.008,1.008,0,0,0,914.517,190Zm-15.25,5h16.266v2H899.267v-2Zm4.066,9h2.034v2h-2.034v-2Zm4.067,0h2.033v2H907.4v-2Zm-4.067,4H925.7v2H903.333v-2Zm0,11h2.034v2h-2.034v-2Zm4.067,0h2.033v2H907.4v-2Zm-4.067,4H925.7v2H903.333v-2Zm0,10h2.034v2h-2.034v-2Zm4.067,0h2.033v2H907.4v-2Zm-4.067,4H925.7v2H903.333v-2Zm37.617-34h-6.1a1.009,1.009,0,0,0-1.017,1v37a1.009,1.009,0,0,0,1.017,1h6.1a1.009,1.009,0,0,0,1.017-1V204A1.009,1.009,0,0,0,940.95,203Zm-1.017,37h-4.066V205h4.066v35Zm0.1,0.553-2.135,4.211-2.145-4.211-1.82.894,3.05,6a1.025,1.025,0,0,0,1.82,0l3.05-6ZM931.8,212H944v2H931.8v-2Zm3.05-5h6.1v2h-6.1v-2Z" transform="translate(-83 -84)"/>
  <path class="cls-9" d="M1458.49,199.36a1.006,1.006,0,0,0-.95-0.685h-17.77v2h17.04a22.866,22.866,0,0,1,.97,6.522v37.491h-14.01V218.508a1.864,1.864,0,0,0-1.9-1.828h-5.1v-11l7,0.011v4.989h2V205.69a0.124,0.124,0,0,0,0-.085,1.966,1.966,0,0,0-2.01-1.929h-6.99V193.144a5.985,5.985,0,0,0,4,1.53h10.01a6,6,0,0,0,0-12h-10.01a6,6,0,0,1-10,0h-10a6,6,0,0,0,0,12h10a5.966,5.966,0,0,0,4-1.53v19.535h-7v-5h-2v5.082a1.96,1.96,0,0,0,2,1.92h7v7h-5v2h5.08a1.959,1.959,0,0,0,1.92-2v-3l5,0.006v26h-10v-15h-2v3h-8c-7.89,0-8-9.6-8-10h3v-2h-8.01a0.262,0.262,0,0,1-.04,0,0.882,0.882,0,0,1-.94-0.818l5.89-12.771a1.024,1.024,0,0,0,.1-0.42,21.377,21.377,0,0,1,.83-6h17.17v-2h-17.92a1,1,0,0,0-.95.7,23.968,23.968,0,0,0-1.13,7.08l-5.91,12.807a0.886,0.886,0,0,0-.1.419v0.171a2.918,2.918,0,0,0,3,2.83h3.01c0,4.152,2.09,12,10,12h8v11a1,1,0,0,0,1,1h28.01a1,1,0,0,0,1-1V207.2A24.867,24.867,0,0,0,1458.49,199.36Zm-17.72-14.689h10.01a4,4,0,0,1,0,8h-10.01a4,4,0,0,1-3.87-3h9.87v-2h-9.87A4,4,0,0,1,1440.77,184.671Zm-10,8h-10a4,4,0,0,1,0-8h10a4.017,4.017,0,0,1,3.88,3h-9.88v2h9.88A4.017,4.017,0,0,1,1430.77,192.673Zm-5,11h2v2h-2v-2Zm18,9h2v2h-2v-2Zm-18,9h2v2h-2v-2Z" transform="translate(-505.75 -82.656)"/>
  <path class="cls-10" d="M578.008,1070.7l0.98-.94,3.463,3.3-0.98.93Zm4.443,3.29-0.98-.93,5.541-5.27,0.98,0.93Zm-4.443-4.07,0.98-.93,3.463,3.29-0.98.93Zm4.443,3.29-0.98-.93,5.541-5.27,0.98,0.93Z" transform="translate(-408 -1007)"/>
  <path class="cls-11" d="m 24.971,344.07 a 0.7,0.7 0 0 0 -0.559,-0.475 l -7.8,-1.114 -3.51,-7.094 A 0.7,0.7 0 0 0 12.482,335 v 0 a 0.691,0.691 0 0 0 -0.621,0.392 l -3.464,7.114 -7.8,1.166 a 0.7,0.7 0 0 0 -0.56,0.475 0.692,0.692 0 0 0 0.18,0.71199 l 5.66,5.515 -1.309,7.811 a 0.691,0.691 0 0 0 0.277,0.681 0.682,0.682 0 0 0 0.406,0.134 0.656,0.656 0 0 0 0.323,-0.083 l 6.963,-3.709 6.983,3.668 a 0.7,0.7 0 0 0 0.319,0.078 v 0 a 0.7,0.7 0 0 0 0.692,-0.7 0.562,0.562 0 0 0 -0.02,-0.16 l -1.35,-7.764 5.624,-5.546 A 0.685,0.685 0 0 0 24.971,344.07 Z m -7.03,5.52499 a 0.691,0.691 0 0 0 -0.195,0.619 l 1.175,6.774 -6.065,-3.183 a 0.7,0.7 0 0 0 -0.647,0 l -6.044,3.219 1.134,-6.784 a 0.7,0.7 0 0 0 -0.2,-0.614 l -4.906,-4.788 6.768,-1.01099 a 0.688,0.688 0 0 0 0.519,-0.382 l 3.007,-6.175 3.048,6.16 a 0.7,0.7 0 0 0 0.523,0.382 l 6.773,0.96999 z" id="path56-3"/>
  <path class="cls-11" d="M 74.005,348.88399 H 70.472 A 11.024,11.024 0 0 0 60.121,338.533 V 335 h -1.237 v 3.533 a 11.023,11.023 0 0 0 -10.346,10.35099 h -3.533 v 1.237 h 3.533 a 11.023,11.023 0 0 0 10.351,10.346 v 3.533 h 1.237 v -3.533 a 11.008,11.008 0 0 0 10.346,-10.346 h 3.533 z m -4.77,0 H 66.388 A 6.9,6.9 0 0 0 60.121,342.617 v -2.847 a 9.774,9.774 0 0 1 9.114,9.11399 z m -4.09,1.231 a 5.716,5.716 0 0 1 -5.024,5.025 v -1.876 h -1.237 v 1.882 a 5.655,5.655 0 0 1 -5.025,-5.025 h 1.882 v -1.237 H 53.865 A 5.716,5.716 0 0 1 58.889,343.86 v 1.87599 h 1.237 V 343.86 a 5.717,5.717 0 0 1 5.025,5.02399 h -1.876 v 1.237 h 1.87 z M 58.889,339.77 v 2.847 a 6.9,6.9 0 0 0 -6.267,6.26699 H 49.775 A 9.774,9.774 0 0 1 58.889,339.77 Z m -9.114,10.34499 h 2.847 a 6.9,6.9 0 0 0 6.267,6.268 v 2.847 a 9.774,9.774 0 0 1 -9.114,-9.115 z m 10.346,9.115 v -2.847 a 6.9,6.9 0 0 0 6.267,-6.268 h 2.847 a 9.774,9.774 0 0 1 -9.114,9.115 z" id="path58-6"/>
  <path class="cls-11" d="M 93.005,347.49999 A 12.5,12.5 0 1 0 105.505,335 a 12.516,12.516 0 0 0 -12.5,12.49999 z m 5.225,8.562 a 34.566,34.566 0 0 1 3.9,-2.276 0.82,0.82 0 0 0 0.462,-0.738 v -1.569 a 0.624,0.624 0 0 0 -0.088,-0.318 5.39,5.39 0 0 1 -0.651,-1.918 0.622,0.622 0 0 0 -0.451,-0.507 3.417,3.417 0 0 1 -0.456,-1.118 2.821,2.821 0 0 1 -0.159,-1.041 0.628,0.628 0 0 0 0.59,-0.836 3.575,3.575 0 0 1 -0.088,-2.13799 4.165,4.165 0 0 1 1.118,-1.948 5.4,5.4 0 0 1 1.056,-0.872 c 0,0 0.016,-0.01 0.021,-0.015 a 3.938,3.938 0 0 1 0.989,-0.508 v 0 a 3.2,3.2 0 0 1 0.887,-0.164 3.684,3.684 0 0 1 2.256,0.477 2.711,2.711 0 0 1 1.021,0.923 0.634,0.634 0 0 0 0.512,0.339 0.949,0.949 0 0 1 0.534,0.379 c 0.3,0.395 0.717,1.42 0.205,3.89999 a 0.626,0.626 0 0 0 0.333,0.687 2.51,2.51 0 0 1 -0.149,1.087 3.985,3.985 0 0 1 -0.4,1.04 0.66,0.66 0 0 0 -0.328,0.041 0.631,0.631 0 0 0 -0.374,0.467 5.861,5.861 0 0 1 -0.477,1.538 0.639,0.639 0 0 0 -0.062,0.272 v 1.815 a 0.809,0.809 0 0 0 0.462,0.738 34.444,34.444 0 0 1 3.9,2.277 11.2,11.2 0 0 1 -14.563,-0.014 z m 7.275,-19.80599 a 11.238,11.238 0 0 1 8.209,18.91899 35.993,35.993 0 0 0 -4.03,-2.394 v -1.405 a 6.54,6.54 0 0 0 0.41,-1.215 c 0.5,-0.19 0.856,-0.774 1.189,-1.948 a 2.515,2.515 0 0 0 -0.082,-2.256 c 0.375,-2.05599 0.2,-3.57399 -0.507,-4.51199 a 2.184,2.184 0 0 0 -1.1,-0.8 4.027,4.027 0 0 0 -1.343,-1.169 4.908,4.908 0 0 0 -2.963,-0.641 4.49,4.49 0 0 0 -1.21,0.231 h -0.006 a 5.2,5.2 0 0 0 -1.286,0.656 6.962,6.962 0 0 0 -1.282,1.056 5.305,5.305 0 0 0 -1.431,2.513 4.791,4.791 0 0 0 -0.056,2.23499 1.036,1.036 0 0 0 -0.19,0.18 2.446,2.446 0 0 0 -0.092,2.25 3.5,3.5 0 0 0 0.933,1.81 6.646,6.646 0 0 0 0.661,1.877 v 1.138 a 36.379,36.379 0 0 0 -4.029,2.394 11.233,11.233 0 0 1 8.205,-18.91899 z" id="path60-7"/>
  <path class="cls-11" d="m 168.936,347.26399 a 0.74,0.74 0 0 0 -0.974,-0.353 4.23,4.23 0 0 1 -3.722,-0.1 8.723,8.723 0 0 0 -3.863,-8.36899 9.109,9.109 0 0 0 -6.738,-1.351 l -2.629,-1.944 a 0.747,0.747 0 0 0 -0.884,0 l -9.829,7.265 a 0.71,0.71 0 0 0 -0.144,1.008 0.743,0.743 0 0 0 1.028,0.141 l 9.387,-6.938 1.33,0.983 a 9.137,9.137 0 0 0 -1.059,0.514 0.746,0.746 0 0 0 -0.713,0.092 l -9.829,7.26499 a 0.715,0.715 0 0 0 -0.292,0.574 v 12.229 a 0.726,0.726 0 0 0 0.734,0.72 h 19.657 a 0.727,0.727 0 0 0 0.735,-0.72 v -9.38 a 9.077,9.077 0 0 0 2.3,-0.88 5.7,5.7 0 0 0 2.765,0.717 5.774,5.774 0 0 0 2.379,-0.515 0.714,0.714 0 0 0 0.361,-0.958 z m -17.166,10.3 h -2.4 v -5.219 h 2.4 z m 1.469,0 v -5.939 a 0.727,0.727 0 0 0 -0.735,-0.719 h -3.873 a 0.727,0.727 0 0 0 -0.734,0.719 v 5.939 h -6.424 v -11.157 l 8.624,-6.37399 a 8.737,8.737 0 0 0 3.929,7.58999 9.084,9.084 0 0 0 5.029,1.513 q 0.3,0 0.607,-0.02 v 8.445 h -6.423 z m 1.611,-11.129 a 7.3,7.3 0 0 1 -3.219,-7.09999 7.629,7.629 0 0 1 7.922,0.3 7.309,7.309 0 0 1 3.287,6.27699 l -6.47,-4.29999 a 0.743,0.743 0 0 0 -1.019,0.192 0.71,0.71 0 0 0 0.2,1 l 6.469,4.29999 a 7.629,7.629 0 0 1 -7.17,-0.672 z" id="path62-5"/>
  <path class="cls-11" d="m 211.045,335 h -18.08 a 2.926,2.926 0 0 0 -2.96,2.883 v 11.16999 a 2.926,2.926 0 0 0 2.96,2.884 h 8.367 v 2.752 h -4.171 a 0.656,0.656 0 1 0 0,1.311 h 9.688 a 0.656,0.656 0 1 0 0,-1.311 h -4.171 v -2.752 h 8.367 a 2.926,2.926 0 0 0 2.96,-2.884 V 337.883 A 2.923,2.923 0 0 0 211.045,335 Z m -18.08,1.311 h 18.085 a 1.6,1.6 0 0 1 1.614,1.572 v 9.33499 H 191.351 V 337.883 a 1.593,1.593 0 0 1 1.614,-1.572 z m 18.08,14.31499 h -18.08 a 1.6,1.6 0 0 1 -1.614,-1.573 v -0.524 h 21.308 v 0.524 a 1.6,1.6 0 0 1 -1.614,1.573 z" id="path64-3"/>
  <path class="cls-11" d="m 251.005,336.3 a 11.7,11.7 0 1 1 -11.7,11.69999 11.714,11.714 0 0 1 11.7,-11.69999 m 0,-1.3 a 13,13 0 1 0 13,12.99999 13,13 0 0 0 -13,-12.99999 z m 5.19,11.58999 -6.92,-4.55599 c -1.19,-0.786 -2.17,-0.259 -2.17,1.171 v 9.58799 c 0,1.43 0.98,1.959 2.18,1.176 l 6.91,-4.526 a 1.581,1.581 0 0 0 0,-2.853 z m -0.92,1.9 -6.15,4.023 a 0.425,0.425 0 0 1 -0.72,-0.392 V 343.882 a 0.424,0.424 0 0 1 0.72,-0.39 l 6.15,4.04699 a 0.527,0.527 0 0 1 0,0.948 z" id="path66-5"/>
  <path class="cls-11" d="m 303.675,345.27099 -1.83,-0.31 a 10.142,10.142 0 0 0 -0.73,-1.76999 l 1.08,-1.5 a 1.608,1.608 0 0 0 -0.18,-2.069 L 300.395,338 a 1.594,1.594 0 0 0 -2.06,-0.174 l -1.51,1.076 a 10.167,10.167 0 0 0 -1.84,-0.755 l -0.3,-1.8 a 1.607,1.607 0 0 0 -1.59,-1.342 h -2.28 a 1.607,1.607 0 0 0 -1.59,1.342 l -0.31,1.846 a 10.212,10.212 0 0 0 -1.77,0.744 l -1.49,-1.075 a 1.6,1.6 0 0 0 -0.94,-0.3 1.575,1.575 0 0 0 -1.13,0.473 l -1.63,1.618 a 1.609,1.609 0 0 0 -0.17,2.07 l 1.09,1.526 a 10.4,10.4 0 0 0 -0.73,1.77599 l -1.8,0.3 a 1.6,1.6 0 0 0 -1.34,1.586 v 2.289 a 1.6,1.6 0 0 0 1.34,1.586 l 1.85,0.315 a 10.363,10.363 0 0 0 0.74,1.765 l -1.07,1.488 a 1.608,1.608 0 0 0 0.18,2.069 l 1.61,1.619 a 1.614,1.614 0 0 0 1.14,0.472 1.574,1.574 0 0 0 0.93,-0.3 l 1.52,-1.087 a 10.455,10.455 0 0 0 1.72,0.707 l 0.31,1.824 a 1.6,1.6 0 0 0 1.58,1.342 h 2.29 a 1.607,1.607 0 0 0 1.59,-1.342 l 0.31,-1.824 a 10.656,10.656 0 0 0 1.77,-0.734 l 1.5,1.076 a 1.627,1.627 0 0 0 0.94,0.3 v 0 a 1.574,1.574 0 0 0 1.13,-0.472 l 1.62,-1.619 a 1.608,1.608 0 0 0 0.18,-2.069 l -1.08,-1.51 a 9.746,9.746 0 0 0 0.73,-1.771 l 1.83,-0.3 a 1.6,1.6 0 0 0 1.34,-1.586 v -2.286 a 1.582,1.582 0 0 0 -1.33,-1.592 z m -0.13,3.872 a 0.132,0.132 0 0 1 -0.11,0.141 l -2.29,0.381 a 0.73,0.73 0 0 0 -0.58,0.537 8.6,8.6 0 0 1 -0.95,2.276 0.766,0.766 0 0 0 0.03,0.8 l 1.35,1.89 a 0.158,0.158 0 0 1 -0.02,0.184 l -1.62,1.619 a 0.13,0.13 0 0 1 -0.1,0.043 0.133,0.133 0 0 1 -0.08,-0.027 l -1.89,-1.341 a 0.734,0.734 0 0 0 -0.8,-0.033 8.589,8.589 0 0 1 -2.27,0.945 0.722,0.722 0 0 0 -0.54,0.587 l -0.39,2.281 a 0.138,0.138 0 0 1 -0.14,0.119 h -2.28 a 0.138,0.138 0 0 1 -0.14,-0.119 l -0.38,-2.281 a 0.744,0.744 0 0 0 -0.54,-0.587 8.985,8.985 0 0 1 -2.23,-0.912 0.721,0.721 0 0 0 -0.37,-0.1 0.683,0.683 0 0 0 -0.42,0.136 l -1.9,1.352 a 0.2,0.2 0 0 1 -0.08,0.027 0.149,0.149 0 0 1 -0.11,-0.043 l -1.62,-1.619 a 0.142,0.142 0 0 1 -0.01,-0.184 l 1.33,-1.874 a 0.755,0.755 0 0 0 0.04,-0.8 8.536,8.536 0 0 1 -0.96,-2.27 0.744,0.744 0 0 0 -0.59,-0.538 l -2.29,-0.391 a 0.142,0.142 0 0 1 -0.12,-0.141 v -2.287 a 0.141,0.141 0 0 1 0.12,-0.141 l 2.26,-0.38 a 0.729,0.729 0 0 0 0.59,-0.544 8.608,8.608 0 0 1 0.93,-2.28099 0.716,0.716 0 0 0 -0.04,-0.793 l -1.35,-1.9 a 0.144,0.144 0 0 1 0.02,-0.184 l 1.62,-1.619 a 0.119,0.119 0 0 1 0.1,-0.043 0.133,0.133 0 0 1 0.08,0.027 l 1.87,1.336 a 0.754,0.754 0 0 0 0.81,0.032 8.511,8.511 0 0 1 2.27,-0.955 0.745,0.745 0 0 0 0.54,-0.587 l 0.39,-2.3 a 0.139,0.139 0 0 1 0.14,-0.12 h 2.29 a 0.139,0.139 0 0 1 0.14,0.12 l 0.38,2.264 a 0.735,0.735 0 0 0 0.54,0.592 8.871,8.871 0 0 1 2.33,0.956 0.737,0.737 0 0 0 0.8,-0.032 l 1.87,-1.347 a 0.2,0.2 0 0 1 0.08,-0.027 0.149,0.149 0 0 1 0.11,0.043 l 1.62,1.619 a 0.156,0.156 0 0 1 0.01,0.184 l -1.34,1.885 a 0.724,0.724 0 0 0 -0.03,0.8 8.6,8.6 0 0 1 0.94,2.27599 0.728,0.728 0 0 0 0.59,0.538 l 2.28,0.385 a 0.142,0.142 0 0 1 0.12,0.142 v 2.286 h -0.01 z m -11.54,-6.75599 a 5.611,5.611 0 1 0 5.61,5.60999 5.617,5.617 0 0 0 -5.61,-5.60999 z m 0,9.75399 a 4.144,4.144 0 1 1 4.15,-4.144 4.147,4.147 0 0 1 -4.15,4.144 z" id="path68-6"/>
  <path class="cls-11" d="m 352.005,335 h -18 a 3,3 0 0 0 -3,3 v 11.99999 a 3,3 0 0 0 3,3 h 18 a 3,3 0 0 0 3,-3 V 338 a 3,3 0 0 0 -3,-3 z m -4.94,8 6.35,-5.442 a 1.291,1.291 0 0 1 0.09,0.437 v 11.99999 a 1.447,1.447 0 0 1 -0.06,0.294 z m 4.94,-6.5 a 1.324,1.324 0 0 1 0.28,0.057 l -9.28,7.956 -9.28,-7.956 a 1.324,1.324 0 0 1 0.28,-0.057 z m -19.44,13.79299 a 1.438,1.438 0 0 1 -0.06,-0.293 V 338 a 1.291,1.291 0 0 1 0.09,-0.437 l 6.35,5.441 z m 1.44,1.207 a 1.494,1.494 0 0 1 -0.43,-0.086 l 6.51,-7.43299 2.43,2.08699 a 0.751,0.751 0 0 0 0.98,0 l 2.43,-2.08699 6.51,7.43299 a 1.494,1.494 0 0 1 -0.43,0.086 z" id="path70-2"/>
  <path class="cls-11" d="m 402.535,351.24799 v -3.861 a 1.064,1.064 0 0 0 -1.09,-1.033 h -8.33 V 343.028 a 4.277,4.277 0 1 0 -1.22,0 v 3.32599 h -8.33 a 1.064,1.064 0 0 0 -1.09,1.033 v 3.861 a 2.954,2.954 0 0 0 -2.47,2.852 3.08,3.08 0 0 0 6.15,0 2.955,2.955 0 0 0 -2.46,-2.847 v -3.753 h 8.2 v 3.746 a 2.964,2.964 0 0 0 -2.47,2.847 3.085,3.085 0 0 0 6.16,0 2.964,2.964 0 0 0 -2.47,-2.847 v -3.746 h 8.21 v 3.746 a 2.954,2.954 0 0 0 -2.47,2.847 3.08,3.08 0 0 0 6.15,0 2.954,2.954 0 0 0 -2.47,-2.845 z M 389.445,339.035 a 3.065,3.065 0 1 1 3.06,2.886 2.978,2.978 0 0 1 -3.06,-2.886 z m -4.5,15.05999 a 1.863,1.863 0 1 1 -1.86,-1.756 1.815,1.815 0 0 1 1.86,1.761 z m 9.42,0 a 1.863,1.863 0 1 1 -1.86,-1.756 1.809,1.809 0 0 1 1.86,1.761 z m 7.56,1.756 a 1.759,1.759 0 1 1 1.86,-1.756 1.815,1.815 0 0 1 -1.86,1.756 z" id="path72-9"/>
  <path class="cls-11" d="m 451.365,346.05099 a 0.577,0.577 0 0 0 -0.73,-0.327 l -5.28,1.887 4.27,-4.16199 a 0.528,0.528 0 0 0 0.17,-0.389 0.534,0.534 0 0 0 -0.17,-0.389 l -3.3,-3.223 a 0.577,0.577 0 0 0 -0.8,0 l -4.19,4.082 2.35,-5.435 a 0.515,0.515 0 0 0 0,-0.421 0.523,0.523 0 0 0 -0.3,-0.3 l -4.3,-1.771 a 0.569,0.569 0 0 0 -0.74,0.293 l -2.32,5.368 v -5.714 a 0.563,0.563 0 0 0 -0.57,-0.55 h -4.88 a 0.563,0.563 0 0 0 -0.57,0.55 v 20.89999 a 0.563,0.563 0 0 0 0.57,0.55 h 4.88 a 0.592,0.592 0 0 0 0.2,-0.036 0.535,0.535 0 0 0 0.19,0.036 0.553,0.553 0 0 0 0.19,-0.034 l 16.6,-5.93 a 0.543,0.543 0 0 0 0.33,-0.7 z m -18.02,9.849 h -2.21 V 336.1 h 3.76 v 19.79999 z m 9.08,-17.72499 -3.2,7.41599 -0.58,1.344 -0.58,1.343 -1,2.294 -0.59,1.386 -0.45,1.042 V 344.1 l 3.14,-7.265 z m -4.51,13.26499 0.6,-1.385 1.66,-3.838 5.75,-5.59999 2.5,2.446 -5.59,5.45199 -1.9,1.849 -4.41,4.3 z m -0.42,3.834 5.96,-5.813 7.04,-2.515 1.22,3.246 z m -4.48,-1.635 a 0.547,0.547 0 0 0 -0.07,0.007 0.8,0.8 0 0 0 -0.53,0.259 0.758,0.758 0 0 0 -0.19,0.342 1.127,1.127 0 0 0 -0.02,0.186 0.755,0.755 0 0 0 0.15,0.466 0.829,0.829 0 0 0 0.66,0.329 0.578,0.578 0 0 0 0.11,-0.012 0.81,0.81 0 0 0 0.43,-0.193 0.726,0.726 0 0 0 0.15,-0.169 1,1 0 0 0 0.12,-0.351 v -0.07 a 0.8,0.8 0 0 0 -0.81,-0.794 z" id="path74-1"/>
  <path class="cls-11" d="m 499.005,354.93399 -1.37,-14.91599 a 0.576,0.576 0 0 0 -0.59,-0.519 h -2.88 a 4.663,4.663 0 0 0 -9.32,0 h -2.88 a 0.583,0.583 0 0 0 -0.59,0.519 l -1.37,14.91599 v 0.052 a 3.3,3.3 0 0 0 3.52,3.014 h 11.96 a 3.3,3.3 0 0 0 3.52,-3.014 z m -9.5,-18.79099 a 3.435,3.435 0 0 1 3.48,3.356 h -6.96 a 3.435,3.435 0 0 1 3.48,-3.356 z m 5.98,20.70999 h -11.96 a 2.157,2.157 0 0 1 -2.34,-1.848 l 1.32,-14.36299 h 2.34 v 2 a 0.585,0.585 0 0 0 0.59,0.571 0.579,0.579 0 0 0 0.59,-0.571 v -2 h 6.96 v 2 a 0.579,0.579 0 0 0 0.59,0.571 0.585,0.585 0 0 0 0.59,-0.571 v -2 h 2.34 l 1.32,14.36799 a 2.157,2.157 0 0 1 -2.34,1.843 z m -3.52,-9.96 -3.49,3.37 -1.42,-1.375 a 0.609,0.609 0 0 0 -0.84,0 0.561,0.561 0 0 0 0,0.809 l 1.84,1.781 a 0.614,0.614 0 0 0 0.84,0 l 3.9,-3.776 a 0.561,0.561 0 0 0 0,-0.809 0.606,0.606 0 0 0 -0.83,0 z" id="path76-2"/>
</svg>
