<svg xmlns="http://www.w3.org/2000/svg" xmlns:xlink="http://www.w3.org/1999/xlink" width="1500" height="1500" viewBox="0 0 1500 1500"><defs>
	<style>
	 .cls-1 {
        fill: #5557cd;
        fill-rule: evenodd;
      }	

	</style>
	</defs>

	 <path id="dashboard" class="cls-1" d="M50,177.586h4.707v3.828H50v-3.828ZM55.586,172h3.828v4.707H55.586V172Zm0,5.586h3.828v3.828H55.586v-3.828Zm0,4.707h3.828V187H55.586v-4.707Zm4.707,0V187h3.389A1.319,1.319,0,0,0,65,185.682v-3.389H60.293ZM51.318,172A1.32,1.32,0,0,0,50,173.318v3.389h4.707V172H51.318ZM50,182.293v3.389A1.32,1.32,0,0,0,51.318,187h3.389v-4.707H50Zm10.293-4.707H65v3.828H60.293v-3.828ZM63.682,172H60.293v4.707H65v-3.389A1.319,1.319,0,0,0,63.682,172Z" transform="translate(-50 -172)"/>
	
	
	 <path id="publish" class="cls-1" d="M64.122,476.6H63.248V487H63.4A1.6,1.6,0,0,0,65,485.4v-7.918A0.878,0.878,0,0,0,64.122,476.6Zm-1.977-2.661L60.688,472.3a0.876,0.876,0,0,0-.656-0.3H50.878a0.879,0.879,0,0,0-.878.879v13.242a0.879,0.879,0,0,0,.878.879H62.367V474.521A0.881,0.881,0,0,0,62.145,473.937Zm-9.4,1.416H55.6a0.44,0.44,0,0,1,0,.879H52.745A0.44,0.44,0,0,1,52.745,475.353Zm6.556,8.713H52.745a0.44,0.44,0,0,1,0-.879H59.3A0.44,0.44,0,0,1,59.3,484.066Zm0-1.83H52.745a0.44,0.44,0,0,1,0-.879H59.3A0.44,0.44,0,0,1,59.3,482.236Zm0-1.83H52.745a0.44,0.44,0,0,1,0-.879H59.3A0.44,0.44,0,0,1,59.3,480.406Z" transform="translate(-2 -472)"/>
	
	  <path id="profile" class="cls-1" d="M59.355,242.534c-0.37-.061-0.379-1.117-0.379-1.117A5.43,5.43,0,0,0,60.3,238.8c0.638,0,1.032-1.6.394-2.158,0.027-.591.82-4.641-3.2-4.641s-3.222,4.05-3.2,4.641c-0.638.562-.244,2.158,0.394,2.158a5.428,5.428,0,0,0,1.325,2.618s-0.008,1.056-.379,1.117C54.452,242.73,50,244.767,50,247H65C65,244.767,60.548,242.73,59.355,242.534Z" transform="translate(30 -232)"/>
	
	  <path id="paper" class="cls-1" d="M65,656.5a0.461,0.461,0,0,0-.462-0.461H61.362a0.461,0.461,0,0,1-.462-0.462v-3.112A0.461,0.461,0,0,0,60.438,652H57.125a0.691,0.691,0,0,0-.693.692v2.413a0.189,0.189,0,0,1,.02.02l2.7,2.694a1.137,1.137,0,0,1,.336.811h0V663.3h4.82A0.691,0.691,0,0,0,65,662.6V656.5h0Zm-2.763-4.428a0.231,0.231,0,0,0-.394.163v2.694a0.231,0.231,0,0,0,.231.231h2.7a0.23,0.23,0,0,0,.163-0.394ZM50.693,667h7.182a0.691,0.691,0,0,0,.693-0.692v-6.044a0.461,0.461,0,0,0-.462-0.462H54.946a0.461,0.461,0,0,1-.462-0.461v-3.174a0.461,0.461,0,0,0-.462-0.462h-3.33a0.683,0.683,0,0,0-.693.554v9.91a1.049,1.049,0,0,0,.062.369A0.666,0.666,0,0,0,50.693,667Zm4.948-8.139h2.7a0.231,0.231,0,0,0,.231-0.231,0.226,0.226,0,0,0-.068-0.163L56.432,656.4l-0.627-.626a0.223,0.223,0,0,0-.162-0.068,0.23,0.23,0,0,0-.232.231v2.694h0A0.229,0.229,0,0,0,55.641,658.861Z" transform="translate(64 -652)"/>
	
	 <path id="faq" class="cls-1" d="M57.5,712a7.5,7.5,0,1,0,7.5,7.5A7.5,7.5,0,0,0,57.5,712Zm0,11.25a0.938,0.938,0,1,1,.938-0.938A0.938,0.938,0,0,1,57.5,723.25Zm0.716-3.891a0.438,0.438,0,0,0-.247.413v0.2a0.469,0.469,0,1,1-.937,0v-0.2a1.366,1.366,0,0,1,.827-1.28,0.939,0.939,0,0,0,.564-1.041,0.95,0.95,0,0,0-.748-0.748,0.939,0.939,0,0,0-1.111.922,0.469,0.469,0,1,1-.937,0A1.876,1.876,0,1,1,58.216,719.359Z" transform="translate(95 -712)"/>
	
	 <path id="balance" class="cls-1" d="M60.6,600.152a1.468,1.468,0,0,0,0,2.935H65v-2.935H60.6Zm0,1.956a0.489,0.489,0,1,1,.489-0.489A0.489,0.489,0,0,1,60.6,602.108Zm0-2.934h2.446v-1.468a1.469,1.469,0,0,0-1.467-1.467H50.489a0.489,0.489,0,0,0-.489.489v9.783a0.489,0.489,0,0,0,.489.489H61.576a1.469,1.469,0,0,0,1.467-1.467v-1.468H60.6A2.446,2.446,0,1,1,60.6,599.174Zm2.935-2.935h0a2.428,2.428,0,0,1,.494,1.467v1.468H65v-1.468A1.469,1.469,0,0,0,63.533,596.239Zm0.489,7.826v1.468A2.428,2.428,0,0,1,63.528,607h0A1.469,1.469,0,0,0,65,605.533v-1.468H64.022Zm-6.013-11.922a0.489,0.489,0,0,0-.692,0l-0.43.43,2.688,2.687h1.551Zm-2.935,0a0.487,0.487,0,0,0-.692,0l-3.118,3.117h6.927Z" transform="translate(125 -592)"/>
	
	 <path id="apps" class="cls-1" d="M55.963,532H50.879a0.88,0.88,0,0,0-.879.879v5.084a0.88,0.88,0,0,0,.879.879h5.084a0.88,0.88,0,0,0,.879-0.879v-5.084A0.88,0.88,0,0,0,55.963,532Zm2.81,6.842h5.084a0.88,0.88,0,0,0,.879-0.879v-5.084A0.88,0.88,0,0,0,63.858,532H58.774a0.88,0.88,0,0,0-.879.879v5.084A0.88,0.88,0,0,0,58.774,538.842Zm-2.81,1.053H50.879a0.88,0.88,0,0,0-.879.879v5.084a0.88,0.88,0,0,0,.879.879h5.084a0.88,0.88,0,0,0,.879-0.879v-5.084A0.88,0.88,0,0,0,55.963,539.9Zm8.51,2.894H61.842v-2.631a0.526,0.526,0,0,0-1.053,0v2.631H58.158a0.527,0.527,0,0,0,0,1.053H60.79v2.632a0.526,0.526,0,0,0,1.053,0v-2.632h2.631A0.527,0.527,0,0,0,64.474,542.789Z" transform="translate(155 -532)"/>
	
	 <path id="advert" class="cls-1" d="M53.082,294.007A3.1,3.1,0,0,0,50,297.112h0a3.087,3.087,0,0,0,3.082,3.092h3.572v-6.2H53.082Zm9.954,0.8v4.55A2.3,2.3,0,0,0,63.036,294.806Zm-5.453,11.275h0a0.332,0.332,0,0,1-.322-0.274l-0.239-1.481h0.594v-2.152H56.676l-0.227-1.362h-3.26l0.928,5.782a0.476,0.476,0,0,0,.475.406h2.975a0.453,0.453,0,0,0,.453-0.455A0.434,0.434,0,0,0,57.583,306.081ZM57.261,293.8v6.572l5.169,1.8V292Z" transform="translate(185 -292)"/>
	
	

</svg>