<svg xmlns="http://www.w3.org/2000/svg" xmlns:xlink="http://www.w3.org/1999/xlink" width="1500" height="1500" viewBox="0 0 1500 1500"><defs>
	<style>
	 .cls-1 {
        fill: #fff;
        fill-rule: evenodd;
        opacity: 0.3;
      }	
		 .cls-2 {
        fill: #8d9eb7;
        fill-rule: evenodd;
      }
		 .cls-3 {
        fill: #fff;
        fill-rule: evenodd;
      }
		 .cls-4 {
        fill: #949798;
        fill-rule: evenodd;
      }
		.cls-5 {
        fill: #5557cd;
      }
		.cls-6 {
        fill: #fff;
		fill-rule:nonzero;
      }
	</style>
	</defs><title></title>

	
	 <path id="alert" class="cls-3" d="M1784.28,50.293c-0.63-.932-1.5-2.207-1.5-5.839V42.818a7.669,7.669,0,0,0-5.56-7.315V35.182a2.22,2.22,0,0,0-4.44,0V35.5a7.669,7.669,0,0,0-5.56,7.315v1.636c0,3.631-.87,4.907-1.5,5.839a3.046,3.046,0,0,0-.72,1.8c0,1.778,3.78,2.4,6.84,2.617a3.324,3.324,0,0,0,6.32,0c3.06-.215,6.84-0.839,6.84-2.617A3.046,3.046,0,0,0,1784.28,50.293Zm-10.39-15.111a1.11,1.11,0,0,1,2.22,0v0.087a7.116,7.116,0,0,0-2.22,0V35.182h0ZM1775,55.909a2.213,2.213,0,0,1-1.94-1.133c0.79,0.032,1.47.042,1.94,0.042s1.15-.009,1.94-0.042A2.213,2.213,0,0,1,1775,55.909Zm0-2.182c-5.09,0-8.89-.864-8.89-1.636a2.041,2.041,0,0,1,.53-1.19c0.67-.989,1.69-2.483,1.69-6.446V42.818a6.671,6.671,0,0,1,13.34,0v1.636c0,3.963,1.02,5.457,1.69,6.446a2.041,2.041,0,0,1,.53,1.19C1783.89,52.863,1780.09,53.727,1775,53.727Z" transform="translate(-1430 -33)"/>
	
	 <path id="user" class="cls-3" d="M1846,55.326V54.05a4.316,4.316,0,0,0-1.56-3.343,35.021,35.021,0,0,0-5.4-3.544V45.7a7.387,7.387,0,0,0,.4-1.252,2.822,2.822,0,0,0,1.16-1.964,2.609,2.609,0,0,0-.08-2.268c0.36-2.086.2-3.623-.49-4.57a2.159,2.159,0,0,0-1.07-.8,3.931,3.931,0,0,0-1.31-1.188,4.484,4.484,0,0,0-2.41-.663c-0.16,0-.32.01-0.46,0.02a4.157,4.157,0,0,0-1.17.231c-0.01,0-.01,0-0.02,0a5.216,5.216,0,0,0-1.24.658,6.433,6.433,0,0,0-1.24,1.07,5.412,5.412,0,0,0-1.38,2.538,4.878,4.878,0,0,0-.05,2.278,1.1,1.1,0,0,0-.23.226,2.637,2.637,0,0,0-.05,2.214,3.508,3.508,0,0,0,.91,1.826,6.708,6.708,0,0,0,.65,1.919v1.183a34.636,34.636,0,0,0-5.4,3.544,4.309,4.309,0,0,0-1.56,3.343v1.276A1.637,1.637,0,0,0,1825.6,57h18.8A1.642,1.642,0,0,0,1846,55.326Zm-20.85,0V54.05a3.112,3.112,0,0,1,1.11-2.391,33.537,33.537,0,0,1,5.43-3.525,0.8,0.8,0,0,0,.43-0.717v-1.6a0.643,0.643,0,0,0-.08-0.3,5.437,5.437,0,0,1-.64-1.959,0.6,0.6,0,0,0-.43-0.491,3.286,3.286,0,0,1-.46-1.159,2.893,2.893,0,0,1-.15-1.1,0.587,0.587,0,0,0,.49-0.231,0.642,0.642,0,0,0,.09-0.569,3.712,3.712,0,0,1-.09-2.189,4.274,4.274,0,0,1,1.1-1.993,5.408,5.408,0,0,1,1.04-.893,0.034,0.034,0,0,1,.02-0.015,3.726,3.726,0,0,1,.97-0.52l0.01,0a2.994,2.994,0,0,1,.87-0.167,3.572,3.572,0,0,1,2.22.486,2.844,2.844,0,0,1,1.01.952,0.527,0.527,0,0,0,.45.319,0.934,0.934,0,0,1,.59.437c0.28,0.412.67,1.473,0.18,3.947a0.6,0.6,0,0,0,.32.668,2.568,2.568,0,0,1-.14,1.134,4.4,4.4,0,0,1-.41,1.09,0.552,0.552,0,0,0-.33.039,0.587,0.587,0,0,0-.34.447,6.2,6.2,0,0,1-.47,1.571,0.6,0.6,0,0,0-.06.26v1.846a0.806,0.806,0,0,0,.43.717,33.544,33.544,0,0,1,5.42,3.525,3.08,3.08,0,0,1,1.11,2.391v1.276a0.457,0.457,0,0,1-.44.466h-18.8A0.453,0.453,0,0,1,1825.15,55.326Z" transform="translate(-1545 -33)"/>
	
	  	<path id="Shape_1_copy_3" class="cls-3" d="M1032.65,980.353l0.7-.706,8,8-0.7.707Zm16.7,0-0.7-.706-8,8,0.7,0.707Z" transform="translate(-582.66 -979.656)"/>
	
	
	  <path  class="cls-3" d="M1782.65,1465.65l0.7,0.7-8,8-0.7-.7Zm0,16.7,0.7-.7-8-8-0.7.7Z" transform="translate(-1770.66 -1415.66)"/>

	  <path  class="cls-3" d="M1832.35,1465.65l-0.7.7,8,8,0.7-.7Zm0,16.7-0.7-.7,8-8,0.7,0.7Z" transform="translate(-1781.66 -1415.66)"/>

</svg>