<svg height="682.66669pt" viewBox="-21 -21 682.66669 682.66669" width="682.66669pt" xmlns="http://www.w3.org/2000/svg"><path d="m480 0v640h-480v-508.199219l131.800781-131.800781zm0 0" fill="#9ee5a2"/><path d="m80 200h320v120h-320zm0 0" fill="#7fd37f"/><path d="m132 0h-.28125l-131.71875 131.71875v.28125h132zm0 0" fill="#7fd37f"/><path d="m260 40h40v40h-40zm0 0" fill="#fff"/><path d="m180 40h40v40h-40zm0 0" fill="#fff"/><path d="m80 360h200v40h-200zm0 0" fill="#7fd37f"/><path d="m80 440h200v40h-200zm0 0" fill="#7fd37f"/><g fill="#9b7cab"><path d="m364.820312 446.179688-38.398437-11.257813c-4.265625 14.535156-6.421875 29.695313-6.421875 45.078125h40c0-11.558594 1.621094-22.921875 4.820312-33.820312zm0 0"/><path d="m600 320v54.082031c-29.78125-34.0625-72.84375-54.082031-120-54.082031-54.722656 0-105.078125 27.480469-134.640625 73.480469l33.640625 21.640625c22.179688-34.5 59.941406-55.121094 101-55.121094 35.121094 0 67.261719 14.78125 89.5625 40h-49.5625v40h120v-120zm0 0"/><path d="m595.179688 513.820312 38.398437 11.257813c4.265625-14.535156 6.421875-29.695313 6.421875-45.078125h-40c0 11.558594-1.621094 22.921875-4.820312 33.820312zm0 0"/><path d="m480 600c-35.121094 0-67.261719-14.78125-89.5625-40h49.5625v-40h-120v120h40v-54.082031c29.78125 34.0625 72.84375 54.082031 120 54.082031 54.722656 0 105.078125-27.480469 134.640625-73.480469l-33.640625-21.640625c-22.179688 34.5-59.941406 55.121094-101 55.121094zm0 0"/></g></svg>