<svg height="682pt" viewBox="-101 -21 682 682.66669" width="682pt" xmlns="http://www.w3.org/2000/svg"><path d="m475 0v640h-480v-508.199219l131.800781-131.800781zm0 0" fill="#40a2e7"/><path d="m127.003906 0h-.285156l-131.71875 131.71875v.28125h132.003906zm0 0" fill="#168de2"/><g fill="#fff"><path d="m255 40h40v40h-40zm0 0"/><path d="m175 40h40v40h-40zm0 0"/><path d="m140.859375 474.140625-74.140625-74.140625 74.140625-74.140625 28.28125 28.28125-45.859375 45.859375 45.859375 45.859375zm0 0"/><path d="m329.140625 474.140625-28.28125-28.28125 45.859375-45.859375-45.859375-45.859375 28.28125-28.28125 74.140625 74.140625zm0 0"/><path d="m196.011719 453.679688 40.023437-120 37.945313 12.65625-40.023438 120zm0 0"/></g></svg>