<svg height="682pt" viewBox="-101 -21 682 682.66669" width="682pt" xmlns="http://www.w3.org/2000/svg"><path d="m475 0v640h-480v-508.199219l131.800781-131.800781zm0 0" fill="#40a2e7"/><path d="m127.003906 0h-.285156l-131.71875 131.71875v.28125h132.003906zm0 0" fill="#168de2"/><path d="m55 280h40v40h-40zm0 0" fill="#fff"/><path d="m55 200h40v40h-40zm0 0" fill="#fff"/><path d="m375 120v-40h-40v-80h-40v80h-40v40h40v40h-40v40h40v40h-40v40h40v40h-40v160h120v-160h-40v-40h40v-40h-40v-40h40v-40h-40v-40zm-40 320h-40v-80h40zm0 0" fill="#ffe163"/></svg>