<svg height="682pt" viewBox="-101 -21 682 682.66669" width="682pt" xmlns="http://www.w3.org/2000/svg"><path d="m475 0v640h-480v-508.199219l131.800781-131.800781zm0 0" fill="#b3f4ef"/><path d="m127.003906 0h-.285156l-131.71875 131.71875v.28125h132.003906zm0 0" fill="#77e5e0"/><path d="m255 40h40v40h-40zm0 0" fill="#fff"/><path d="m175 40h40v40h-40zm0 0" fill="#fff"/><path d="m323.199219 540h-328.199219v-27.402344l138.800781-161.996094zm0 0" fill="#9ee5a2"/><path d="m323.199219 540h-280.996094l124.800781-156.203125zm0 0" fill="#7fd37f"/><path d="m475 513-180-225-201.601562 252h381.601562zm0 0" fill="#9ee5a2"/><path d="m235 260c0 33.132812-26.863281 60-60 60-33.132812 0-60-26.867188-60-60s26.867188-60 60-60c33.136719 0 60 26.867188 60 60zm0 0" fill="#ffe163"/></svg>