<svg height="682pt" viewBox="-24 -21 682 682.66669" width="682pt" xmlns="http://www.w3.org/2000/svg"><path d="m480.082031 0v640h-479.9999998v-508.199219l131.8046878-131.800781zm0 0" fill="#b3f4ef"/><path d="m80.082031 440h240v40h-240zm0 0" fill="#fff"/><path d="m80.082031 360h280v40h-280zm0 0" fill="#fff"/><path d="m80.082031 200h320v120h-320zm0 0" fill="#ffe163"/><path d="m132.085938 0h-.285157l-131.7187498 131.71875v.28125h132.0039068zm0 0" fill="#77e5e0"/><path d="m440.082031 280c-88.195312 0-160 71.800781-160 160s71.804688 160 160 160c13.601563 0 27.003907-1.800781 40-5v-85.800781c-11.800781 6.800781-25.398437 10.800781-40 10.800781-44.199219 0-80-35.800781-80-80s35.800781-80 80-80c14.601563 0 28.199219 4 40 10.800781v-85.800781c-12.796875-3.199219-26.199219-5-40-5zm0 0" fill="#77e5e0"/><path d="m537.882812 509.398438c13.800782-19.597657 22.199219-43.597657 22.199219-69.398438 0-52.203125-33.398437-96.800781-80-113-12.597656-4.597656-26-7-40-7-66.199219 0-120 53.796875-120 120s53.800781 120 120 120c14 0 27.597657-2.402344 40-7.203125 10.601563-3.597656 20.402344-8.796875 29.402344-15l96.398437 96.402344 28.398438-28.398438zm-57.800781-.199219c-11.800781 6.800781-25.398437 10.800781-40 10.800781-44.199219 0-80-35.800781-80-80s35.800781-80 80-80c14.601563 0 28.199219 4 40 10.800781 24 13.800781 40 39.597657 40 69.199219s-16 55.398438-40 69.199219zm0 0" fill="#40a2e7"/><g fill="#fff"><path d="m260.082031 40h40v40h-40zm0 0"/><path d="m180.082031 40h40v40h-40zm0 0"/></g></svg>