<svg height="682.66669pt" viewBox="-21 -21 682.66669 682.66669" width="682.66669pt" xmlns="http://www.w3.org/2000/svg"><path d="m480 0v640h-480v-508.199219l131.800781-131.800781zm0 0" fill="#b3f4ef"/><path d="m480 321.203125v318.796875h-92.796875c-41-33-67.203125-83.398438-67.203125-140 0-92.402344 70.199219-169 160-178.796875zm0 0" fill="#77e5e0"/><path d="m80 360h280v40h-280zm0 0" fill="#fff"/><path d="m132 0h-.28125l-131.71875 131.71875v.28125h132zm0 0" fill="#77e5e0"/><path d="m80 200h320v120h-320zm0 0" fill="#ffe163"/><path d="m80 440h240v40h-240zm0 0" fill="#fff"/><path d="m640 500c0 77.320312-62.679688 140-140 140s-140-62.679688-140-140 62.679688-140 140-140 140 62.679688 140 140zm0 0" fill="#7fd37f"/><g fill="#fff"><path d="m480 568.28125-54.140625-54.140625 28.28125-28.28125 25.859375 25.859375 65.859375-65.859375 28.28125 28.28125zm0 0"/><path d="m260 40h40v40h-40zm0 0"/><path d="m180 40h40v40h-40zm0 0"/></g></svg>